M48
METRIC,LZ,000.000
;FILE_FORMAT=3:3
;TYPE=PLATED
;Layer: PTH_Through_Via
;EasyEDA v6.5.22, 2023-01-18 22:00:42
;8e8bbbff4294455ebee03c083efee197,a9f00e695b414744abbaf3eb758947ea,10
;Gerber Generator version 0.2
;Holesize 1 = 0.305 mm
T01C0.305
;Holesize 2 = 0.306 mm
T02C0.306
%
G05
G90
T01
X073660Y062865
X021971Y074676
X037465Y077216
X057785Y072263
X063881Y068453
X061770Y063373
X055070Y063353
X046990Y075057
X043180Y072517
X052578Y073152
X048768Y069723
X048768Y073660
X053975Y072136
X047371Y081407
X035560Y080421
X070075Y074615
X078105Y076835
X070612Y067310
X055626Y083312
X053213Y086106
X045593Y071755
X065786Y081534
X050800Y080075
X028829Y067564
X034163Y068072
X029845Y063754
X026035Y064008
X070866Y077470
X032004Y071755
X052578Y074549
X060077Y066040
X068453Y065151
X071755Y066040
X067183Y070739
X060579Y088138
T02
X063500Y078740
X058674Y079121
X023749Y087122
M30
