G04 Layer: TopSilkscreenLayer*
G04 EasyEDA v6.5.22, 2023-01-18 22:00:42*
G04 8e8bbbff4294455ebee03c083efee197,a9f00e695b414744abbaf3eb758947ea,10*
G04 Gerber Generator version 0.2*
G04 Scale: 100 percent, Rotated: No, Reflected: No *
G04 Dimensions in millimeters *
G04 leading zeros omitted , absolute positions ,4 integer and 5 decimal *
%FSLAX45Y45*%
%MOMM*%

%ADD10C,0.1000*%
%ADD11C,0.1520*%
%ADD12C,0.2000*%
%ADD13C,0.1524*%
%ADD14C,0.2540*%
%ADD15C,0.1270*%
%ADD16C,0.1500*%
%ADD17C,0.2500*%
%ADD18C,0.3000*%
%ADD19C,0.0116*%

%LPD*%
D10*
X7671561Y5676900D02*
G01*
X7767065Y5676900D01*
X7671561Y5676900D02*
G01*
X7671561Y5717794D01*
X7676134Y5731510D01*
X7680706Y5736081D01*
X7689595Y5740654D01*
X7698740Y5740654D01*
X7707884Y5736081D01*
X7712456Y5731510D01*
X7717027Y5717794D01*
X7717027Y5676900D02*
G01*
X7717027Y5717794D01*
X7721600Y5731510D01*
X7725918Y5736081D01*
X7735061Y5740654D01*
X7748777Y5740654D01*
X7757922Y5736081D01*
X7762493Y5731510D01*
X7767065Y5717794D01*
X7767065Y5676900D01*
X7671561Y5770626D02*
G01*
X7767065Y5770626D01*
X7671561Y5770626D02*
G01*
X7767065Y5806947D01*
X7671561Y5843270D02*
G01*
X7767065Y5806947D01*
X7671561Y5843270D02*
G01*
X7767065Y5843270D01*
X7671561Y5873242D02*
G01*
X7767065Y5873242D01*
X7689595Y5903213D02*
G01*
X7685024Y5912357D01*
X7671561Y5926073D01*
X7767065Y5926073D01*
X7685024Y6010655D02*
G01*
X7676134Y6006084D01*
X7671561Y5992368D01*
X7671561Y5983223D01*
X7676134Y5969507D01*
X7689595Y5960618D01*
X7712456Y5956045D01*
X7735061Y5956045D01*
X7753350Y5960618D01*
X7762493Y5969507D01*
X7767065Y5983223D01*
X7767065Y5987795D01*
X7762493Y6001512D01*
X7753350Y6010655D01*
X7739634Y6014973D01*
X7735061Y6014973D01*
X7721600Y6010655D01*
X7712456Y6001512D01*
X7707884Y5987795D01*
X7707884Y5983223D01*
X7712456Y5969507D01*
X7721600Y5960618D01*
X7735061Y5956045D01*
X7671561Y6072378D02*
G01*
X7676134Y6058662D01*
X7689595Y6049518D01*
X7712456Y6045200D01*
X7725918Y6045200D01*
X7748777Y6049518D01*
X7762493Y6058662D01*
X7767065Y6072378D01*
X7767065Y6081521D01*
X7762493Y6094984D01*
X7748777Y6104128D01*
X7725918Y6108700D01*
X7712456Y6108700D01*
X7689595Y6104128D01*
X7676134Y6094984D01*
X7671561Y6081521D01*
X7671561Y6072378D01*
X7685024Y6202426D02*
G01*
X7676134Y6193281D01*
X7671561Y6179565D01*
X7671561Y6161531D01*
X7676134Y6147815D01*
X7685024Y6138671D01*
X7694168Y6138671D01*
X7703311Y6143244D01*
X7707884Y6147815D01*
X7712456Y6156960D01*
X7721600Y6184137D01*
X7725918Y6193281D01*
X7730490Y6197854D01*
X7739634Y6202426D01*
X7753350Y6202426D01*
X7762493Y6193281D01*
X7767065Y6179565D01*
X7767065Y6161531D01*
X7762493Y6147815D01*
X7753350Y6138671D01*
X7671561Y6232397D02*
G01*
X7767065Y6232397D01*
X7767065Y6232397D02*
G01*
X7767065Y6287007D01*
X7671561Y6316979D02*
G01*
X7767065Y6316979D01*
X7671561Y6346952D02*
G01*
X7767065Y6346952D01*
X7671561Y6346952D02*
G01*
X7767065Y6383273D01*
X7671561Y6419595D02*
G01*
X7767065Y6383273D01*
X7671561Y6419595D02*
G01*
X7767065Y6419595D01*
X7671561Y6449568D02*
G01*
X7767065Y6449568D01*
X7671561Y6449568D02*
G01*
X7671561Y6508750D01*
X7717027Y6449568D02*
G01*
X7717027Y6485889D01*
X7767065Y6449568D02*
G01*
X7767065Y6508750D01*
X7836661Y5676900D02*
G01*
X7932165Y5676900D01*
X7836661Y5676900D02*
G01*
X7836661Y5717794D01*
X7841234Y5731510D01*
X7845806Y5736081D01*
X7854695Y5740654D01*
X7863840Y5740654D01*
X7872984Y5736081D01*
X7877556Y5731510D01*
X7882127Y5717794D01*
X7882127Y5676900D02*
G01*
X7882127Y5717794D01*
X7886700Y5731510D01*
X7891018Y5736081D01*
X7900161Y5740654D01*
X7913877Y5740654D01*
X7923022Y5736081D01*
X7927593Y5731510D01*
X7932165Y5717794D01*
X7932165Y5676900D01*
X7891018Y5770626D02*
G01*
X7891018Y5852413D01*
X7859268Y5886957D02*
G01*
X7854695Y5886957D01*
X7845806Y5891529D01*
X7841234Y5896102D01*
X7836661Y5904992D01*
X7836661Y5923279D01*
X7841234Y5932423D01*
X7845806Y5936995D01*
X7854695Y5941568D01*
X7863840Y5941568D01*
X7872984Y5936995D01*
X7886700Y5927852D01*
X7932165Y5882386D01*
X7932165Y5945886D01*
X7836661Y6003289D02*
G01*
X7841234Y5989573D01*
X7854695Y5980429D01*
X7877556Y5976112D01*
X7891018Y5976112D01*
X7913877Y5980429D01*
X7927593Y5989573D01*
X7932165Y6003289D01*
X7932165Y6012434D01*
X7927593Y6025895D01*
X7913877Y6035039D01*
X7891018Y6039612D01*
X7877556Y6039612D01*
X7854695Y6035039D01*
X7841234Y6025895D01*
X7836661Y6012434D01*
X7836661Y6003289D01*
X7859268Y6074155D02*
G01*
X7854695Y6074155D01*
X7845806Y6078728D01*
X7841234Y6083300D01*
X7836661Y6092444D01*
X7836661Y6110478D01*
X7841234Y6119621D01*
X7845806Y6124194D01*
X7854695Y6128765D01*
X7863840Y6128765D01*
X7872984Y6124194D01*
X7886700Y6115050D01*
X7932165Y6069584D01*
X7932165Y6133337D01*
X7859268Y6167881D02*
G01*
X7854695Y6167881D01*
X7845806Y6172454D01*
X7841234Y6177026D01*
X7836661Y6185915D01*
X7836661Y6204204D01*
X7841234Y6213347D01*
X7845806Y6217920D01*
X7854695Y6222237D01*
X7863840Y6222237D01*
X7872984Y6217920D01*
X7886700Y6208776D01*
X7932165Y6163310D01*
X7932165Y6226810D01*
X7891018Y6256781D02*
G01*
X7891018Y6338823D01*
X7854695Y6368795D02*
G01*
X7850124Y6377686D01*
X7836661Y6391402D01*
X7932165Y6391402D01*
X7836661Y6448805D02*
G01*
X7841234Y6435089D01*
X7854695Y6425945D01*
X7877556Y6421373D01*
X7891018Y6421373D01*
X7913877Y6425945D01*
X7927593Y6435089D01*
X7932165Y6448805D01*
X7932165Y6457695D01*
X7927593Y6471412D01*
X7913877Y6480555D01*
X7891018Y6485128D01*
X7877556Y6485128D01*
X7854695Y6480555D01*
X7841234Y6471412D01*
X7836661Y6457695D01*
X7836661Y6448805D01*
X7891018Y6515100D02*
G01*
X7891018Y6596887D01*
X7859268Y6631431D02*
G01*
X7854695Y6631431D01*
X7845806Y6636004D01*
X7841234Y6640576D01*
X7836661Y6649720D01*
X7836661Y6667754D01*
X7841234Y6676897D01*
X7845806Y6681470D01*
X7854695Y6686042D01*
X7863840Y6686042D01*
X7872984Y6681470D01*
X7886700Y6672326D01*
X7932165Y6626860D01*
X7932165Y6690613D01*
X7854695Y6720586D02*
G01*
X7850124Y6729729D01*
X7836661Y6743192D01*
X7932165Y6743192D01*
D11*
X2146300Y8139937D02*
G01*
X2146300Y8044434D01*
X2146300Y8139937D02*
G01*
X2187193Y8139937D01*
X2200909Y8135365D01*
X2205481Y8130794D01*
X2210054Y8121904D01*
X2210054Y8112760D01*
X2205481Y8103615D01*
X2200909Y8099044D01*
X2187193Y8094471D01*
X2146300Y8094471D01*
X2178050Y8094471D02*
G01*
X2210054Y8044434D01*
X2303525Y8126476D02*
G01*
X2294381Y8135365D01*
X2280920Y8139937D01*
X2262631Y8139937D01*
X2248915Y8135365D01*
X2240025Y8126476D01*
X2240025Y8117331D01*
X2244597Y8108187D01*
X2248915Y8103615D01*
X2258059Y8099044D01*
X2285491Y8089900D01*
X2294381Y8085581D01*
X2298954Y8081010D01*
X2303525Y8071865D01*
X2303525Y8058150D01*
X2294381Y8049005D01*
X2280920Y8044434D01*
X2262631Y8044434D01*
X2248915Y8049005D01*
X2240025Y8058150D01*
X2365502Y8139937D02*
G01*
X2365502Y8044434D01*
X2333497Y8139937D02*
G01*
X2397252Y8139937D01*
X4298950Y8101837D02*
G01*
X4298950Y8006334D01*
X4267200Y8101837D02*
G01*
X4330954Y8101837D01*
X4360925Y8101837D02*
G01*
X4424425Y8006334D01*
X4424425Y8101837D02*
G01*
X4360925Y8006334D01*
X4279900Y7885937D02*
G01*
X4279900Y7790434D01*
X4279900Y7885937D02*
G01*
X4320793Y7885937D01*
X4334509Y7881365D01*
X4339081Y7876794D01*
X4343654Y7867904D01*
X4343654Y7858760D01*
X4339081Y7849615D01*
X4334509Y7845044D01*
X4320793Y7840471D01*
X4279900Y7840471D01*
X4311650Y7840471D02*
G01*
X4343654Y7790434D01*
X4373625Y7885937D02*
G01*
X4437125Y7790434D01*
X4437125Y7885937D02*
G01*
X4373625Y7790434D01*
X4343654Y7681976D02*
G01*
X4334509Y7690865D01*
X4320793Y7695437D01*
X4302506Y7695437D01*
X4289043Y7690865D01*
X4279900Y7681976D01*
X4279900Y7672831D01*
X4284472Y7663687D01*
X4289043Y7659115D01*
X4298188Y7654544D01*
X4325365Y7645400D01*
X4334509Y7641081D01*
X4339081Y7636510D01*
X4343654Y7627365D01*
X4343654Y7613650D01*
X4334509Y7604505D01*
X4320793Y7599934D01*
X4302506Y7599934D01*
X4289043Y7604505D01*
X4279900Y7613650D01*
X4441697Y7672831D02*
G01*
X4437125Y7681976D01*
X4427981Y7690865D01*
X4419091Y7695437D01*
X4400804Y7695437D01*
X4391659Y7690865D01*
X4382515Y7681976D01*
X4378197Y7672831D01*
X4373625Y7659115D01*
X4373625Y7636510D01*
X4378197Y7622794D01*
X4382515Y7613650D01*
X4391659Y7604505D01*
X4400804Y7599934D01*
X4419091Y7599934D01*
X4427981Y7604505D01*
X4437125Y7613650D01*
X4441697Y7622794D01*
X4471670Y7695437D02*
G01*
X4471670Y7599934D01*
X4471670Y7599934D02*
G01*
X4526279Y7599934D01*
X4343654Y7478776D02*
G01*
X4334509Y7487665D01*
X4320793Y7492237D01*
X4302506Y7492237D01*
X4289043Y7487665D01*
X4279900Y7478776D01*
X4279900Y7469631D01*
X4284472Y7460487D01*
X4289043Y7455915D01*
X4298188Y7451344D01*
X4325365Y7442200D01*
X4334509Y7437881D01*
X4339081Y7433310D01*
X4343654Y7424165D01*
X4343654Y7410450D01*
X4334509Y7401305D01*
X4320793Y7396734D01*
X4302506Y7396734D01*
X4289043Y7401305D01*
X4279900Y7410450D01*
X4373625Y7492237D02*
G01*
X4373625Y7396734D01*
X4373625Y7492237D02*
G01*
X4405375Y7492237D01*
X4419091Y7487665D01*
X4427981Y7478776D01*
X4432554Y7469631D01*
X4437125Y7455915D01*
X4437125Y7433310D01*
X4432554Y7419594D01*
X4427981Y7410450D01*
X4419091Y7401305D01*
X4405375Y7396734D01*
X4373625Y7396734D01*
X4503420Y7492237D02*
G01*
X4467097Y7396734D01*
X4503420Y7492237D02*
G01*
X4539995Y7396734D01*
X4480813Y7428737D02*
G01*
X4526279Y7428737D01*
X2168143Y6539737D02*
G01*
X2218181Y6539737D01*
X2190750Y6503415D01*
X2204465Y6503415D01*
X2213609Y6498844D01*
X2218181Y6494271D01*
X2222754Y6480810D01*
X2222754Y6471665D01*
X2218181Y6457950D01*
X2209038Y6448805D01*
X2195322Y6444234D01*
X2181606Y6444234D01*
X2168143Y6448805D01*
X2163572Y6453378D01*
X2159000Y6462521D01*
X2252725Y6539737D02*
G01*
X2289047Y6444234D01*
X2325370Y6539737D02*
G01*
X2289047Y6444234D01*
X2364486Y6539737D02*
G01*
X2414524Y6539737D01*
X2387091Y6503415D01*
X2400808Y6503415D01*
X2409952Y6498844D01*
X2414524Y6494271D01*
X2419095Y6480810D01*
X2419095Y6471665D01*
X2414524Y6457950D01*
X2405379Y6448805D01*
X2391663Y6444234D01*
X2378202Y6444234D01*
X2364486Y6448805D01*
X2359913Y6453378D01*
X2355341Y6462521D01*
X4347972Y6669531D02*
G01*
X4343654Y6678676D01*
X4334509Y6687565D01*
X4325365Y6692137D01*
X4307077Y6692137D01*
X4298188Y6687565D01*
X4289043Y6678676D01*
X4284472Y6669531D01*
X4279900Y6655815D01*
X4279900Y6633210D01*
X4284472Y6619494D01*
X4289043Y6610350D01*
X4298188Y6601205D01*
X4307077Y6596634D01*
X4325365Y6596634D01*
X4334509Y6601205D01*
X4343654Y6610350D01*
X4347972Y6619494D01*
X4347972Y6633210D01*
X4325365Y6633210D02*
G01*
X4347972Y6633210D01*
X4378197Y6692137D02*
G01*
X4378197Y6596634D01*
X4378197Y6692137D02*
G01*
X4441697Y6596634D01*
X4441697Y6692137D02*
G01*
X4441697Y6596634D01*
X4471670Y6692137D02*
G01*
X4471670Y6596634D01*
X4471670Y6692137D02*
G01*
X4503420Y6692137D01*
X4517136Y6687565D01*
X4526279Y6678676D01*
X4530852Y6669531D01*
X4535424Y6655815D01*
X4535424Y6633210D01*
X4530852Y6619494D01*
X4526279Y6610350D01*
X4517136Y6601205D01*
X4503420Y6596634D01*
X4471670Y6596634D01*
D10*
X4953000Y6816852D02*
G01*
X4991100Y6759702D01*
X4991100Y6816852D02*
G01*
X4953000Y6759702D01*
X5143500Y7032752D02*
G01*
X5165343Y7005573D01*
X5165343Y6975602D01*
X5187188Y7032752D02*
G01*
X5165343Y7005573D01*
D12*
X7808468Y7877810D02*
G01*
X7808468Y7755128D01*
X7747000Y7816595D02*
G01*
X7869681Y7816595D01*
X7226300Y7829295D02*
G01*
X7348981Y7829295D01*
D10*
X4714493Y6104889D02*
G01*
X4711700Y6110223D01*
X4706365Y6115812D01*
X4700777Y6118352D01*
X4689856Y6118352D01*
X4684522Y6115812D01*
X4678934Y6110223D01*
X4676393Y6104889D01*
X4673600Y6096507D01*
X4673600Y6083045D01*
X4676393Y6074918D01*
X4678934Y6069329D01*
X4684522Y6063995D01*
X4689856Y6061202D01*
X4700777Y6061202D01*
X4706365Y6063995D01*
X4711700Y6069329D01*
X4714493Y6074918D01*
X4714493Y6083045D01*
X4700777Y6083045D02*
G01*
X4714493Y6083045D01*
X4732527Y6118352D02*
G01*
X4732527Y6061202D01*
X4732527Y6118352D02*
G01*
X4770627Y6061202D01*
X4770627Y6118352D02*
G01*
X4770627Y6061202D01*
X4788661Y6118352D02*
G01*
X4788661Y6061202D01*
X4788661Y6118352D02*
G01*
X4807711Y6118352D01*
X4815840Y6115812D01*
X4821427Y6110223D01*
X4824222Y6104889D01*
X4826761Y6096507D01*
X4826761Y6083045D01*
X4824222Y6074918D01*
X4821427Y6069329D01*
X4815840Y6063995D01*
X4807711Y6061202D01*
X4788661Y6061202D01*
X5778500Y6753352D02*
G01*
X5800343Y6696202D01*
X5822188Y6753352D02*
G01*
X5800343Y6696202D01*
X5840222Y6753352D02*
G01*
X5840222Y6696202D01*
X5840222Y6753352D02*
G01*
X5864606Y6753352D01*
X5872988Y6750812D01*
X5875527Y6748018D01*
X5878322Y6742429D01*
X5878322Y6737095D01*
X5875527Y6731508D01*
X5872988Y6728968D01*
X5864606Y6726173D01*
X5840222Y6726173D02*
G01*
X5864606Y6726173D01*
X5872988Y6723379D01*
X5875527Y6720839D01*
X5878322Y6715252D01*
X5878322Y6707123D01*
X5875527Y6701536D01*
X5872988Y6698995D01*
X5864606Y6696202D01*
X5840222Y6696202D01*
X5896356Y6753352D02*
G01*
X5896356Y6712458D01*
X5899150Y6704329D01*
X5904484Y6698995D01*
X5912611Y6696202D01*
X5918200Y6696202D01*
X5926327Y6698995D01*
X5931661Y6704329D01*
X5934456Y6712458D01*
X5934456Y6753352D01*
X5990590Y6745223D02*
G01*
X5985256Y6750812D01*
X5977127Y6753352D01*
X5966206Y6753352D01*
X5958077Y6750812D01*
X5952490Y6745223D01*
X5952490Y6739889D01*
X5955284Y6734302D01*
X5958077Y6731508D01*
X5963411Y6728968D01*
X5979668Y6723379D01*
X5985256Y6720839D01*
X5988050Y6718045D01*
X5990590Y6712458D01*
X5990590Y6704329D01*
X5985256Y6698995D01*
X5977127Y6696202D01*
X5966206Y6696202D01*
X5958077Y6698995D01*
X5952490Y6704329D01*
X6143752Y6527800D02*
G01*
X6086602Y6527800D01*
X6143752Y6527800D02*
G01*
X6143752Y6503162D01*
X6141211Y6495034D01*
X6138418Y6492239D01*
X6132829Y6489700D01*
X6127495Y6489700D01*
X6121908Y6492239D01*
X6119368Y6495034D01*
X6116574Y6503162D01*
X6116574Y6527800D01*
X6116574Y6508750D02*
G01*
X6086602Y6489700D01*
X6132829Y6471665D02*
G01*
X6135624Y6466078D01*
X6143752Y6457950D01*
X6086602Y6457950D01*
X6143752Y6423660D02*
G01*
X6141211Y6431787D01*
X6132829Y6437376D01*
X6119368Y6439915D01*
X6111240Y6439915D01*
X6097524Y6437376D01*
X6089395Y6431787D01*
X6086602Y6423660D01*
X6086602Y6418071D01*
X6089395Y6409944D01*
X6097524Y6404610D01*
X6111240Y6401815D01*
X6119368Y6401815D01*
X6132829Y6404610D01*
X6141211Y6409944D01*
X6143752Y6418071D01*
X6143752Y6423660D01*
X5781547Y6426200D02*
G01*
X5838697Y6426200D01*
X5781547Y6426200D02*
G01*
X5781547Y6450837D01*
X5784088Y6458965D01*
X5786881Y6461760D01*
X5792470Y6464300D01*
X5797804Y6464300D01*
X5803391Y6461760D01*
X5805931Y6458965D01*
X5808725Y6450837D01*
X5808725Y6426200D01*
X5808725Y6445250D02*
G01*
X5838697Y6464300D01*
X5792470Y6482334D02*
G01*
X5789675Y6487921D01*
X5781547Y6496050D01*
X5838697Y6496050D01*
X5792470Y6514084D02*
G01*
X5789675Y6519418D01*
X5781547Y6527545D01*
X5838697Y6527545D01*
D13*
X3263900Y7405115D02*
G01*
X3263900Y7327137D01*
X3268979Y7311644D01*
X3279393Y7301229D01*
X3295141Y7296150D01*
X3305556Y7296150D01*
X3321050Y7301229D01*
X3331463Y7311644D01*
X3336543Y7327137D01*
X3336543Y7405115D01*
X3370834Y7384287D02*
G01*
X3381247Y7389621D01*
X3396995Y7405115D01*
X3396995Y7296150D01*
X7618222Y8229092D02*
G01*
X7623556Y8218678D01*
X7633970Y8208263D01*
X7644129Y8203184D01*
X7664958Y8203184D01*
X7675372Y8208263D01*
X7685786Y8218678D01*
X7691120Y8229092D01*
X7696200Y8244839D01*
X7696200Y8270747D01*
X7691120Y8286242D01*
X7685786Y8296655D01*
X7675372Y8307070D01*
X7664958Y8312150D01*
X7644129Y8312150D01*
X7633970Y8307070D01*
X7623556Y8296655D01*
X7618222Y8286242D01*
X7583931Y8203184D02*
G01*
X7583931Y8312150D01*
X7583931Y8203184D02*
G01*
X7511288Y8312150D01*
X7511288Y8203184D02*
G01*
X7511288Y8312150D01*
X7466584Y8203184D02*
G01*
X7409434Y8203184D01*
X7440675Y8244839D01*
X7424927Y8244839D01*
X7414513Y8249920D01*
X7409434Y8255000D01*
X7404100Y8270747D01*
X7404100Y8281162D01*
X7409434Y8296655D01*
X7419847Y8307070D01*
X7435341Y8312150D01*
X7451090Y8312150D01*
X7466584Y8307070D01*
X7471663Y8301989D01*
X7476997Y8291576D01*
D10*
X4533900Y8739124D02*
G01*
X4528565Y8744712D01*
X4520438Y8747252D01*
X4509515Y8747252D01*
X4501134Y8744712D01*
X4495800Y8739124D01*
X4495800Y8733789D01*
X4498593Y8728202D01*
X4501134Y8725408D01*
X4506722Y8722868D01*
X4522977Y8717279D01*
X4528565Y8714739D01*
X4531359Y8711945D01*
X4533900Y8706358D01*
X4533900Y8698229D01*
X4528565Y8692895D01*
X4520438Y8690102D01*
X4509515Y8690102D01*
X4501134Y8692895D01*
X4495800Y8698229D01*
X4551934Y8747252D02*
G01*
X4565650Y8690102D01*
X4579365Y8747252D02*
G01*
X4565650Y8690102D01*
X4579365Y8747252D02*
G01*
X4592827Y8690102D01*
X4606543Y8747252D02*
G01*
X4592827Y8690102D01*
X4627372Y8733789D02*
G01*
X4627372Y8736329D01*
X4629911Y8741918D01*
X4632706Y8744712D01*
X4638040Y8747252D01*
X4648961Y8747252D01*
X4654550Y8744712D01*
X4657343Y8741918D01*
X4659884Y8736329D01*
X4659884Y8730995D01*
X4657343Y8725408D01*
X4651756Y8717279D01*
X4624577Y8690102D01*
X4662677Y8690102D01*
X6311900Y8226552D02*
G01*
X6311900Y8185658D01*
X6314693Y8177529D01*
X6320027Y8172195D01*
X6328156Y8169402D01*
X6333743Y8169402D01*
X6341872Y8172195D01*
X6347459Y8177529D01*
X6350000Y8185658D01*
X6350000Y8226552D01*
X6373622Y8226552D02*
G01*
X6403593Y8226552D01*
X6387084Y8204708D01*
X6395465Y8204708D01*
X6400800Y8202168D01*
X6403593Y8199373D01*
X6406388Y8191245D01*
X6406388Y8185658D01*
X6403593Y8177529D01*
X6398006Y8172195D01*
X6389877Y8169402D01*
X6381750Y8169402D01*
X6373622Y8172195D01*
X6370827Y8174736D01*
X6368034Y8180323D01*
X4864100Y8175752D02*
G01*
X4864100Y8118602D01*
X4864100Y8175752D02*
G01*
X4888738Y8175752D01*
X4896865Y8173212D01*
X4899659Y8170418D01*
X4902200Y8164829D01*
X4902200Y8159495D01*
X4899659Y8153908D01*
X4896865Y8151368D01*
X4888738Y8148573D01*
X4864100Y8148573D01*
X4883150Y8148573D02*
G01*
X4902200Y8118602D01*
X4947665Y8175752D02*
G01*
X4920234Y8137652D01*
X4961127Y8137652D01*
X4947665Y8175752D02*
G01*
X4947665Y8118602D01*
X4876800Y7959852D02*
G01*
X4876800Y7902702D01*
X4876800Y7959852D02*
G01*
X4901438Y7959852D01*
X4909565Y7957312D01*
X4912359Y7954518D01*
X4914900Y7948929D01*
X4914900Y7943595D01*
X4912359Y7938008D01*
X4909565Y7935468D01*
X4901438Y7932673D01*
X4876800Y7932673D01*
X4895850Y7932673D02*
G01*
X4914900Y7902702D01*
X4971288Y7959852D02*
G01*
X4943856Y7902702D01*
X4932934Y7959852D02*
G01*
X4971288Y7959852D01*
D13*
X7057643Y5814821D02*
G01*
X7047229Y5825236D01*
X7031736Y5830315D01*
X7010908Y5830315D01*
X6995413Y5825236D01*
X6985000Y5814821D01*
X6985000Y5804407D01*
X6990079Y5793994D01*
X6995413Y5788660D01*
X7005827Y5783579D01*
X7037070Y5773165D01*
X7047229Y5768086D01*
X7052563Y5762752D01*
X7057643Y5752337D01*
X7057643Y5736844D01*
X7047229Y5726429D01*
X7031736Y5721350D01*
X7010908Y5721350D01*
X6995413Y5726429D01*
X6985000Y5736844D01*
X7091934Y5830315D02*
G01*
X7118095Y5721350D01*
X7144004Y5830315D02*
G01*
X7118095Y5721350D01*
X7144004Y5830315D02*
G01*
X7169911Y5721350D01*
X7195820Y5830315D02*
G01*
X7169911Y5721350D01*
X7230109Y5809487D02*
G01*
X7240524Y5814821D01*
X7256272Y5830315D01*
X7256272Y5721350D01*
X2694177Y5817107D02*
G01*
X2688843Y5827521D01*
X2678429Y5837936D01*
X2668270Y5843015D01*
X2647441Y5843015D01*
X2637027Y5837936D01*
X2626613Y5827521D01*
X2621279Y5817107D01*
X2616200Y5801360D01*
X2616200Y5775452D01*
X2621279Y5759957D01*
X2626613Y5749544D01*
X2637027Y5739129D01*
X2647441Y5734050D01*
X2668270Y5734050D01*
X2678429Y5739129D01*
X2688843Y5749544D01*
X2694177Y5759957D01*
X2728468Y5843015D02*
G01*
X2728468Y5734050D01*
X2728468Y5843015D02*
G01*
X2801111Y5734050D01*
X2801111Y5843015D02*
G01*
X2801111Y5734050D01*
X2840736Y5817107D02*
G01*
X2840736Y5822187D01*
X2845815Y5832602D01*
X2851150Y5837936D01*
X2861309Y5843015D01*
X2882138Y5843015D01*
X2892552Y5837936D01*
X2897886Y5832602D01*
X2902965Y5822187D01*
X2902965Y5811773D01*
X2897886Y5801360D01*
X2887472Y5785865D01*
X2835402Y5734050D01*
X2908300Y5734050D01*
D10*
X2063241Y7896860D02*
G01*
X2120645Y7896860D01*
X2063241Y7896860D02*
G01*
X2063241Y7921244D01*
X2066036Y7929371D01*
X2068829Y7932165D01*
X2074163Y7934960D01*
X2079752Y7934960D01*
X2085086Y7932165D01*
X2087879Y7929371D01*
X2090674Y7921244D01*
X2090674Y7896860D01*
X2090674Y7915910D02*
G01*
X2120645Y7934960D01*
X2063241Y7966455D02*
G01*
X2066036Y7958328D01*
X2071370Y7955534D01*
X2076958Y7955534D01*
X2082291Y7958328D01*
X2085086Y7963915D01*
X2087879Y7974837D01*
X2090674Y7982965D01*
X2096008Y7988300D01*
X2101341Y7991094D01*
X2109724Y7991094D01*
X2115058Y7988300D01*
X2117852Y7985760D01*
X2120645Y7977378D01*
X2120645Y7966455D01*
X2117852Y7958328D01*
X2115058Y7955534D01*
X2109724Y7952994D01*
X2101341Y7952994D01*
X2096008Y7955534D01*
X2090674Y7961121D01*
X2087879Y7969250D01*
X2085086Y7980171D01*
X2082291Y7985760D01*
X2076958Y7988300D01*
X2071370Y7988300D01*
X2066036Y7985760D01*
X2063241Y7977378D01*
X2063241Y7966455D01*
X5041831Y8671128D02*
G01*
X5041831Y8613978D01*
X5041831Y8613978D02*
G01*
X5074597Y8613978D01*
X5092631Y8671128D02*
G01*
X5092631Y8613978D01*
X5092631Y8671128D02*
G01*
X5128191Y8671128D01*
X5092631Y8643950D02*
G01*
X5114475Y8643950D01*
X5092631Y8613978D02*
G01*
X5128191Y8613978D01*
X5145971Y8671128D02*
G01*
X5145971Y8613978D01*
X5145971Y8671128D02*
G01*
X5165275Y8671128D01*
X5173403Y8668334D01*
X5178737Y8663000D01*
X5181531Y8657412D01*
X5184325Y8649284D01*
X5184325Y8635568D01*
X5181531Y8627440D01*
X5178737Y8622106D01*
X5173403Y8616518D01*
X5165275Y8613978D01*
X5145971Y8613978D01*
X5243253Y8657412D02*
G01*
X5240459Y8663000D01*
X5234871Y8668334D01*
X5229537Y8671128D01*
X5218615Y8671128D01*
X5213281Y8668334D01*
X5207693Y8663000D01*
X5204899Y8657412D01*
X5202359Y8649284D01*
X5202359Y8635568D01*
X5204899Y8627440D01*
X5207693Y8622106D01*
X5213281Y8616518D01*
X5218615Y8613978D01*
X5229537Y8613978D01*
X5234871Y8616518D01*
X5240459Y8622106D01*
X5243253Y8627440D01*
X5243253Y8635568D01*
X5229537Y8635568D02*
G01*
X5243253Y8635568D01*
X5740400Y8848852D02*
G01*
X5740400Y8791702D01*
X5740400Y8791702D02*
G01*
X5773165Y8791702D01*
X5791200Y8848852D02*
G01*
X5791200Y8791702D01*
X5791200Y8848852D02*
G01*
X5826506Y8848852D01*
X5791200Y8821674D02*
G01*
X5813043Y8821674D01*
X5791200Y8791702D02*
G01*
X5826506Y8791702D01*
X5844540Y8848852D02*
G01*
X5844540Y8791702D01*
X5844540Y8848852D02*
G01*
X5863590Y8848852D01*
X5871972Y8846312D01*
X5877306Y8840724D01*
X5880100Y8835389D01*
X5882640Y8827008D01*
X5882640Y8813545D01*
X5880100Y8805418D01*
X5877306Y8799829D01*
X5871972Y8794495D01*
X5863590Y8791702D01*
X5844540Y8791702D01*
X5900674Y8848852D02*
G01*
X5900674Y8791702D01*
X5900674Y8848852D02*
G01*
X5925311Y8848852D01*
X5933440Y8846312D01*
X5936234Y8843518D01*
X5939027Y8837929D01*
X5939027Y8832595D01*
X5936234Y8827008D01*
X5933440Y8824468D01*
X5925311Y8821674D01*
X5900674Y8821674D01*
X5919977Y8821674D02*
G01*
X5939027Y8791702D01*
X5253990Y7731505D02*
G01*
X5259324Y7734300D01*
X5264911Y7739634D01*
X5267452Y7745221D01*
X5267452Y7756144D01*
X5264911Y7761478D01*
X5259324Y7767065D01*
X5253990Y7769605D01*
X5245608Y7772400D01*
X5232145Y7772400D01*
X5224018Y7769605D01*
X5218429Y7767065D01*
X5213095Y7761478D01*
X5210302Y7756144D01*
X5210302Y7745221D01*
X5213095Y7739634D01*
X5218429Y7734300D01*
X5224018Y7731505D01*
X5267452Y7708137D02*
G01*
X5267452Y7677912D01*
X5245608Y7694421D01*
X5245608Y7686294D01*
X5243068Y7680705D01*
X5240274Y7677912D01*
X5232145Y7675371D01*
X5226558Y7675371D01*
X5218429Y7677912D01*
X5213095Y7683500D01*
X5210302Y7691628D01*
X5210302Y7699755D01*
X5213095Y7708137D01*
X5215636Y7710678D01*
X5221224Y7713471D01*
X2112009Y6644894D02*
G01*
X2106675Y6642100D01*
X2101088Y6636765D01*
X2098547Y6631178D01*
X2098547Y6620255D01*
X2101088Y6614921D01*
X2106675Y6609334D01*
X2112009Y6606794D01*
X2120391Y6604000D01*
X2133854Y6604000D01*
X2141981Y6606794D01*
X2147570Y6609334D01*
X2152904Y6614921D01*
X2155697Y6620255D01*
X2155697Y6631178D01*
X2152904Y6636765D01*
X2147570Y6642100D01*
X2141981Y6644894D01*
X2098547Y6701028D02*
G01*
X2155697Y6673850D01*
X2098547Y6662928D02*
G01*
X2098547Y6701028D01*
X6479793Y6854189D02*
G01*
X6477000Y6859523D01*
X6471665Y6865112D01*
X6466077Y6867652D01*
X6455156Y6867652D01*
X6449822Y6865112D01*
X6444234Y6859523D01*
X6441693Y6854189D01*
X6438900Y6845808D01*
X6438900Y6832345D01*
X6441693Y6824218D01*
X6444234Y6818629D01*
X6449822Y6813295D01*
X6455156Y6810502D01*
X6466077Y6810502D01*
X6471665Y6813295D01*
X6477000Y6818629D01*
X6479793Y6824218D01*
X6511543Y6867652D02*
G01*
X6503161Y6865112D01*
X6500622Y6859523D01*
X6500622Y6854189D01*
X6503161Y6848602D01*
X6508750Y6845808D01*
X6519672Y6843268D01*
X6527800Y6840473D01*
X6533388Y6835139D01*
X6535927Y6829552D01*
X6535927Y6821423D01*
X6533388Y6815836D01*
X6530593Y6813295D01*
X6522465Y6810502D01*
X6511543Y6810502D01*
X6503161Y6813295D01*
X6500622Y6815836D01*
X6497827Y6821423D01*
X6497827Y6829552D01*
X6500622Y6835139D01*
X6505956Y6840473D01*
X6514084Y6843268D01*
X6525006Y6845808D01*
X6530593Y6848602D01*
X6533388Y6854189D01*
X6533388Y6859523D01*
X6530593Y6865112D01*
X6522465Y6867652D01*
X6511543Y6867652D01*
X5126990Y7160005D02*
G01*
X5132324Y7162800D01*
X5137911Y7168134D01*
X5140452Y7173721D01*
X5140452Y7184644D01*
X5137911Y7189978D01*
X5132324Y7195565D01*
X5126990Y7198105D01*
X5118608Y7200900D01*
X5105145Y7200900D01*
X5097018Y7198105D01*
X5091429Y7195565D01*
X5086095Y7189978D01*
X5083302Y7184644D01*
X5083302Y7173721D01*
X5086095Y7168134D01*
X5091429Y7162800D01*
X5097018Y7160005D01*
X5129529Y7141971D02*
G01*
X5132324Y7136637D01*
X5140452Y7128255D01*
X5083302Y7128255D01*
X5140452Y7093965D02*
G01*
X5137911Y7102094D01*
X5129529Y7107681D01*
X5116068Y7110476D01*
X5107940Y7110476D01*
X5094224Y7107681D01*
X5086095Y7102094D01*
X5083302Y7093965D01*
X5083302Y7088631D01*
X5086095Y7080250D01*
X5094224Y7074915D01*
X5107940Y7072121D01*
X5116068Y7072121D01*
X5129529Y7074915D01*
X5137911Y7080250D01*
X5140452Y7088631D01*
X5140452Y7093965D01*
X2225547Y7340600D02*
G01*
X2282697Y7340600D01*
X2225547Y7340600D02*
G01*
X2225547Y7365237D01*
X2228088Y7373365D01*
X2230881Y7376160D01*
X2236470Y7378700D01*
X2241804Y7378700D01*
X2247391Y7376160D01*
X2249931Y7373365D01*
X2252725Y7365237D01*
X2252725Y7340600D01*
X2252725Y7359650D02*
G01*
X2282697Y7378700D01*
X2236470Y7396734D02*
G01*
X2233675Y7402321D01*
X2225547Y7410450D01*
X2282697Y7410450D01*
X6629400Y7921752D02*
G01*
X6629400Y7864602D01*
X6629400Y7921752D02*
G01*
X6654038Y7921752D01*
X6662165Y7919212D01*
X6664959Y7916418D01*
X6667500Y7910829D01*
X6667500Y7905495D01*
X6664959Y7899908D01*
X6662165Y7897368D01*
X6654038Y7894573D01*
X6629400Y7894573D01*
X6648450Y7894573D02*
G01*
X6667500Y7864602D01*
X6688327Y7908289D02*
G01*
X6688327Y7910829D01*
X6691122Y7916418D01*
X6693661Y7919212D01*
X6699250Y7921752D01*
X6710172Y7921752D01*
X6715506Y7919212D01*
X6718300Y7916418D01*
X6721093Y7910829D01*
X6721093Y7905495D01*
X6718300Y7899908D01*
X6712965Y7891779D01*
X6685534Y7864602D01*
X6723888Y7864602D01*
X4368800Y7185152D02*
G01*
X4368800Y7128002D01*
X4368800Y7185152D02*
G01*
X4393438Y7185152D01*
X4401565Y7182612D01*
X4404359Y7179818D01*
X4406900Y7174229D01*
X4406900Y7168895D01*
X4404359Y7163308D01*
X4401565Y7160768D01*
X4393438Y7157973D01*
X4368800Y7157973D01*
X4387850Y7157973D02*
G01*
X4406900Y7128002D01*
X4430522Y7185152D02*
G01*
X4460493Y7185152D01*
X4443984Y7163308D01*
X4452365Y7163308D01*
X4457700Y7160768D01*
X4460493Y7157973D01*
X4463288Y7149845D01*
X4463288Y7144258D01*
X4460493Y7136129D01*
X4454906Y7130795D01*
X4446777Y7128002D01*
X4438650Y7128002D01*
X4430522Y7130795D01*
X4427727Y7133336D01*
X4424934Y7138923D01*
X4368800Y6969252D02*
G01*
X4368800Y6912102D01*
X4368800Y6969252D02*
G01*
X4393438Y6969252D01*
X4401565Y6966712D01*
X4404359Y6963918D01*
X4406900Y6958329D01*
X4406900Y6952995D01*
X4404359Y6947408D01*
X4401565Y6944868D01*
X4393438Y6942073D01*
X4368800Y6942073D01*
X4387850Y6942073D02*
G01*
X4406900Y6912102D01*
X4457700Y6969252D02*
G01*
X4430522Y6969252D01*
X4427727Y6944868D01*
X4430522Y6947408D01*
X4438650Y6950202D01*
X4446777Y6950202D01*
X4454906Y6947408D01*
X4460493Y6942073D01*
X4463288Y6933945D01*
X4463288Y6928358D01*
X4460493Y6920229D01*
X4454906Y6914895D01*
X4446777Y6912102D01*
X4438650Y6912102D01*
X4430522Y6914895D01*
X4427727Y6917436D01*
X4424934Y6923023D01*
X2486152Y8750300D02*
G01*
X2429002Y8750300D01*
X2486152Y8750300D02*
G01*
X2486152Y8725662D01*
X2483611Y8717534D01*
X2480818Y8714739D01*
X2475229Y8712200D01*
X2469895Y8712200D01*
X2464308Y8714739D01*
X2461768Y8717534D01*
X2458974Y8725662D01*
X2458974Y8750300D01*
X2458974Y8731250D02*
G01*
X2429002Y8712200D01*
X2478024Y8661400D02*
G01*
X2483611Y8664194D01*
X2486152Y8672321D01*
X2486152Y8677655D01*
X2483611Y8686037D01*
X2475229Y8691371D01*
X2461768Y8694165D01*
X2448052Y8694165D01*
X2437129Y8691371D01*
X2431795Y8686037D01*
X2429002Y8677655D01*
X2429002Y8675115D01*
X2431795Y8666734D01*
X2437129Y8661400D01*
X2445258Y8658605D01*
X2448052Y8658605D01*
X2456179Y8661400D01*
X2461768Y8666734D01*
X2464308Y8675115D01*
X2464308Y8677655D01*
X2461768Y8686037D01*
X2456179Y8691371D01*
X2448052Y8694165D01*
X2060447Y7734300D02*
G01*
X2117597Y7734300D01*
X2060447Y7734300D02*
G01*
X2060447Y7758937D01*
X2062988Y7767065D01*
X2065781Y7769860D01*
X2071370Y7772400D01*
X2076704Y7772400D01*
X2082291Y7769860D01*
X2084831Y7767065D01*
X2087625Y7758937D01*
X2087625Y7734300D01*
X2087625Y7753350D02*
G01*
X2117597Y7772400D01*
X2079497Y7825994D02*
G01*
X2087625Y7823200D01*
X2092959Y7817865D01*
X2095754Y7809484D01*
X2095754Y7806944D01*
X2092959Y7798562D01*
X2087625Y7793228D01*
X2079497Y7790434D01*
X2076704Y7790434D01*
X2068575Y7793228D01*
X2062988Y7798562D01*
X2060447Y7806944D01*
X2060447Y7809484D01*
X2062988Y7817865D01*
X2068575Y7823200D01*
X2079497Y7825994D01*
X2092959Y7825994D01*
X2106675Y7823200D01*
X2114804Y7817865D01*
X2117597Y7809484D01*
X2117597Y7804150D01*
X2114804Y7796021D01*
X2109470Y7793228D01*
X7616952Y6667500D02*
G01*
X7559802Y6667500D01*
X7616952Y6667500D02*
G01*
X7616952Y6642862D01*
X7614411Y6634734D01*
X7611618Y6631939D01*
X7606029Y6629400D01*
X7600695Y6629400D01*
X7595108Y6631939D01*
X7592568Y6634734D01*
X7589774Y6642862D01*
X7589774Y6667500D01*
X7589774Y6648450D02*
G01*
X7559802Y6629400D01*
X7606029Y6611365D02*
G01*
X7608824Y6605778D01*
X7616952Y6597650D01*
X7559802Y6597650D01*
X7616952Y6546850D02*
G01*
X7616952Y6574281D01*
X7592568Y6577076D01*
X7595108Y6574281D01*
X7597902Y6566154D01*
X7597902Y6557771D01*
X7595108Y6549644D01*
X7589774Y6544310D01*
X7581645Y6541515D01*
X7576058Y6541515D01*
X7567929Y6544310D01*
X7562595Y6549644D01*
X7559802Y6557771D01*
X7559802Y6566154D01*
X7562595Y6574281D01*
X7565136Y6577076D01*
X7570724Y6579615D01*
X7302500Y7058152D02*
G01*
X7302500Y7001002D01*
X7302500Y7058152D02*
G01*
X7327138Y7058152D01*
X7335265Y7055612D01*
X7338059Y7052818D01*
X7340600Y7047229D01*
X7340600Y7041895D01*
X7338059Y7036308D01*
X7335265Y7033768D01*
X7327138Y7030973D01*
X7302500Y7030973D01*
X7321550Y7030973D02*
G01*
X7340600Y7001002D01*
X7358634Y7047229D02*
G01*
X7364222Y7050023D01*
X7372350Y7058152D01*
X7372350Y7001002D01*
X7423150Y7050023D02*
G01*
X7420356Y7055612D01*
X7412227Y7058152D01*
X7406640Y7058152D01*
X7398511Y7055612D01*
X7392924Y7047229D01*
X7390384Y7033768D01*
X7390384Y7020052D01*
X7392924Y7009129D01*
X7398511Y7003795D01*
X7406640Y7001002D01*
X7409434Y7001002D01*
X7417561Y7003795D01*
X7423150Y7009129D01*
X7425690Y7017258D01*
X7425690Y7020052D01*
X7423150Y7028179D01*
X7417561Y7033768D01*
X7409434Y7036308D01*
X7406640Y7036308D01*
X7398511Y7033768D01*
X7392924Y7028179D01*
X7390384Y7020052D01*
X4810252Y7086600D02*
G01*
X4753102Y7086600D01*
X4810252Y7086600D02*
G01*
X4810252Y7061962D01*
X4807711Y7053834D01*
X4804918Y7051039D01*
X4799329Y7048500D01*
X4793995Y7048500D01*
X4788408Y7051039D01*
X4785868Y7053834D01*
X4783074Y7061962D01*
X4783074Y7086600D01*
X4783074Y7067550D02*
G01*
X4753102Y7048500D01*
X4799329Y7030465D02*
G01*
X4802124Y7024878D01*
X4810252Y7016750D01*
X4753102Y7016750D01*
X4810252Y6985254D02*
G01*
X4807711Y6993381D01*
X4802124Y6996176D01*
X4796790Y6996176D01*
X4791202Y6993381D01*
X4788408Y6987794D01*
X4785868Y6976871D01*
X4783074Y6968744D01*
X4777740Y6963410D01*
X4772152Y6960615D01*
X4764024Y6960615D01*
X4758436Y6963410D01*
X4755895Y6965950D01*
X4753102Y6974331D01*
X4753102Y6985254D01*
X4755895Y6993381D01*
X4758436Y6996176D01*
X4764024Y6998715D01*
X4772152Y6998715D01*
X4777740Y6996176D01*
X4783074Y6990587D01*
X4785868Y6982460D01*
X4788408Y6971537D01*
X4791202Y6965950D01*
X4796790Y6963410D01*
X4802124Y6963410D01*
X4807711Y6965950D01*
X4810252Y6974331D01*
X4810252Y6985254D01*
X4724400Y7769352D02*
G01*
X4724400Y7712202D01*
X4724400Y7769352D02*
G01*
X4749038Y7769352D01*
X4757165Y7766812D01*
X4759959Y7764018D01*
X4762500Y7758429D01*
X4762500Y7753095D01*
X4759959Y7747508D01*
X4757165Y7744968D01*
X4749038Y7742173D01*
X4724400Y7742173D01*
X4743450Y7742173D02*
G01*
X4762500Y7712202D01*
X4780534Y7758429D02*
G01*
X4786122Y7761223D01*
X4794250Y7769352D01*
X4794250Y7712202D01*
X4847590Y7750302D02*
G01*
X4845050Y7742173D01*
X4839461Y7736839D01*
X4831334Y7734045D01*
X4828540Y7734045D01*
X4820411Y7736839D01*
X4814824Y7742173D01*
X4812284Y7750302D01*
X4812284Y7753095D01*
X4814824Y7761223D01*
X4820411Y7766812D01*
X4828540Y7769352D01*
X4831334Y7769352D01*
X4839461Y7766812D01*
X4845050Y7761223D01*
X4847590Y7750302D01*
X4847590Y7736839D01*
X4845050Y7723123D01*
X4839461Y7714995D01*
X4831334Y7712202D01*
X4825745Y7712202D01*
X4817618Y7714995D01*
X4814824Y7720329D01*
X6981952Y6740144D02*
G01*
X6979411Y6745478D01*
X6973824Y6751065D01*
X6968490Y6753605D01*
X6960108Y6756400D01*
X6946645Y6756400D01*
X6938518Y6753605D01*
X6932929Y6751065D01*
X6927595Y6745478D01*
X6924802Y6740144D01*
X6924802Y6729221D01*
X6927595Y6723634D01*
X6932929Y6718300D01*
X6938518Y6715505D01*
X6946645Y6712712D01*
X6960108Y6712712D01*
X6968490Y6715505D01*
X6973824Y6718300D01*
X6979411Y6723634D01*
X6981952Y6729221D01*
X6981952Y6740144D01*
X6935724Y6731762D02*
G01*
X6919213Y6715505D01*
X6968490Y6692137D02*
G01*
X6971029Y6692137D01*
X6976618Y6689344D01*
X6979411Y6686550D01*
X6981952Y6681215D01*
X6981952Y6670294D01*
X6979411Y6664705D01*
X6976618Y6661912D01*
X6971029Y6659371D01*
X6965695Y6659371D01*
X6960108Y6661912D01*
X6951979Y6667500D01*
X6924802Y6694678D01*
X6924802Y6656578D01*
X6946900Y6550152D02*
G01*
X6946900Y6493002D01*
X6946900Y6550152D02*
G01*
X6965950Y6550152D01*
X6974077Y6547612D01*
X6979665Y6542023D01*
X6982459Y6536689D01*
X6985000Y6528307D01*
X6985000Y6514845D01*
X6982459Y6506718D01*
X6979665Y6501129D01*
X6974077Y6495795D01*
X6965950Y6493002D01*
X6946900Y6493002D01*
X7003034Y6539229D02*
G01*
X7008622Y6542023D01*
X7016750Y6550152D01*
X7016750Y6493002D01*
X7311643Y6353047D02*
G01*
X7316977Y6355587D01*
X7322565Y6361176D01*
X7325106Y6366510D01*
X7327900Y6374892D01*
X7327900Y6388354D01*
X7325106Y6396481D01*
X7322565Y6402070D01*
X7316977Y6407404D01*
X7311643Y6410197D01*
X7300722Y6410197D01*
X7295134Y6407404D01*
X7289800Y6402070D01*
X7287006Y6396481D01*
X7284211Y6388354D01*
X7284211Y6374892D01*
X7287006Y6366510D01*
X7289800Y6361176D01*
X7295134Y6355587D01*
X7300722Y6353047D01*
X7311643Y6353047D01*
X7303261Y6399276D02*
G01*
X7287006Y6415786D01*
X7260843Y6353047D02*
G01*
X7230872Y6353047D01*
X7247127Y6374892D01*
X7239000Y6374892D01*
X7233411Y6377431D01*
X7230872Y6380226D01*
X7228077Y6388354D01*
X7228077Y6393942D01*
X7230872Y6402070D01*
X7236206Y6407404D01*
X7244334Y6410197D01*
X7252715Y6410197D01*
X7260843Y6407404D01*
X7263638Y6404863D01*
X7266177Y6399276D01*
X7302500Y6893052D02*
G01*
X7302500Y6835902D01*
X7302500Y6893052D02*
G01*
X7327138Y6893052D01*
X7335265Y6890512D01*
X7338059Y6887718D01*
X7340600Y6882129D01*
X7340600Y6876795D01*
X7338059Y6871208D01*
X7335265Y6868668D01*
X7327138Y6865873D01*
X7302500Y6865873D01*
X7321550Y6865873D02*
G01*
X7340600Y6835902D01*
X7361427Y6879589D02*
G01*
X7361427Y6882129D01*
X7364222Y6887718D01*
X7366761Y6890512D01*
X7372350Y6893052D01*
X7383272Y6893052D01*
X7388606Y6890512D01*
X7391400Y6887718D01*
X7394193Y6882129D01*
X7394193Y6876795D01*
X7391400Y6871208D01*
X7386065Y6863079D01*
X7358634Y6835902D01*
X7396988Y6835902D01*
X7431277Y6893052D02*
G01*
X7423150Y6890512D01*
X7417561Y6882129D01*
X7414768Y6868668D01*
X7414768Y6860539D01*
X7417561Y6846823D01*
X7423150Y6838695D01*
X7431277Y6835902D01*
X7436611Y6835902D01*
X7444740Y6838695D01*
X7450327Y6846823D01*
X7453122Y6860539D01*
X7453122Y6868668D01*
X7450327Y6882129D01*
X7444740Y6890512D01*
X7436611Y6893052D01*
X7431277Y6893052D01*
D13*
X4582922Y6338315D02*
G01*
X4582922Y6229350D01*
X4546600Y6338315D02*
G01*
X4619243Y6338315D01*
X4653534Y6338315D02*
G01*
X4653534Y6229350D01*
X4653534Y6338315D02*
G01*
X4700270Y6338315D01*
X4716018Y6333236D01*
X4721097Y6327902D01*
X4726431Y6317487D01*
X4726431Y6301994D01*
X4721097Y6291579D01*
X4716018Y6286500D01*
X4700270Y6281165D01*
X4653534Y6281165D01*
X4791709Y6338315D02*
G01*
X4776215Y6333236D01*
X4765802Y6317487D01*
X4760722Y6291579D01*
X4760722Y6276086D01*
X4765802Y6249923D01*
X4776215Y6234429D01*
X4791709Y6229350D01*
X4802124Y6229350D01*
X4817872Y6234429D01*
X4828286Y6249923D01*
X4833365Y6276086D01*
X4833365Y6291579D01*
X4828286Y6317487D01*
X4817872Y6333236D01*
X4802124Y6338315D01*
X4791709Y6338315D01*
X6005322Y6935215D02*
G01*
X6005322Y6826250D01*
X5969000Y6935215D02*
G01*
X6041643Y6935215D01*
X6075934Y6935215D02*
G01*
X6075934Y6826250D01*
X6075934Y6935215D02*
G01*
X6122670Y6935215D01*
X6138418Y6930136D01*
X6143497Y6924802D01*
X6148831Y6914387D01*
X6148831Y6898894D01*
X6143497Y6888479D01*
X6138418Y6883400D01*
X6122670Y6878065D01*
X6075934Y6878065D01*
X6183122Y6914387D02*
G01*
X6193536Y6919721D01*
X6209029Y6935215D01*
X6209029Y6826250D01*
D10*
X7933690Y7401305D02*
G01*
X7939024Y7404100D01*
X7944611Y7409434D01*
X7947152Y7415021D01*
X7947152Y7425944D01*
X7944611Y7431278D01*
X7939024Y7436865D01*
X7933690Y7439405D01*
X7925308Y7442200D01*
X7911845Y7442200D01*
X7903718Y7439405D01*
X7898129Y7436865D01*
X7892795Y7431278D01*
X7890002Y7425944D01*
X7890002Y7415021D01*
X7892795Y7409434D01*
X7898129Y7404100D01*
X7903718Y7401305D01*
X7928102Y7347712D02*
G01*
X7919974Y7350505D01*
X7914640Y7356094D01*
X7911845Y7364221D01*
X7911845Y7367015D01*
X7914640Y7375144D01*
X7919974Y7380478D01*
X7928102Y7383271D01*
X7930895Y7383271D01*
X7939024Y7380478D01*
X7944611Y7375144D01*
X7947152Y7367015D01*
X7947152Y7364221D01*
X7944611Y7356094D01*
X7939024Y7350505D01*
X7928102Y7347712D01*
X7914640Y7347712D01*
X7900924Y7350505D01*
X7892795Y7356094D01*
X7890002Y7364221D01*
X7890002Y7369555D01*
X7892795Y7377937D01*
X7898129Y7380478D01*
X7209790Y7350505D02*
G01*
X7215124Y7353300D01*
X7220711Y7358634D01*
X7223252Y7364221D01*
X7223252Y7375144D01*
X7220711Y7380478D01*
X7215124Y7386065D01*
X7209790Y7388605D01*
X7201408Y7391400D01*
X7187945Y7391400D01*
X7179818Y7388605D01*
X7174229Y7386065D01*
X7168895Y7380478D01*
X7166102Y7375144D01*
X7166102Y7364221D01*
X7168895Y7358634D01*
X7174229Y7353300D01*
X7179818Y7350505D01*
X7209790Y7329678D02*
G01*
X7212329Y7329678D01*
X7217918Y7327137D01*
X7220711Y7324344D01*
X7223252Y7318755D01*
X7223252Y7307834D01*
X7220711Y7302500D01*
X7217918Y7299705D01*
X7212329Y7296912D01*
X7206995Y7296912D01*
X7201408Y7299705D01*
X7193279Y7305294D01*
X7166102Y7332471D01*
X7166102Y7294371D01*
X4838700Y7159752D02*
G01*
X4838700Y7118858D01*
X4841493Y7110729D01*
X4846827Y7105395D01*
X4854956Y7102602D01*
X4860543Y7102602D01*
X4868672Y7105395D01*
X4874259Y7110729D01*
X4876800Y7118858D01*
X4876800Y7159752D01*
X4927600Y7159752D02*
G01*
X4900422Y7159752D01*
X4897627Y7135368D01*
X4900422Y7137908D01*
X4908550Y7140702D01*
X4916677Y7140702D01*
X4924806Y7137908D01*
X4930393Y7132573D01*
X4933188Y7124445D01*
X4933188Y7118858D01*
X4930393Y7110729D01*
X4924806Y7105395D01*
X4916677Y7102602D01*
X4908550Y7102602D01*
X4900422Y7105395D01*
X4897627Y7107936D01*
X4894834Y7113523D01*
X5260593Y6460489D02*
G01*
X5257800Y6465823D01*
X5252465Y6471412D01*
X5246877Y6473952D01*
X5235956Y6473952D01*
X5230622Y6471412D01*
X5225034Y6465823D01*
X5222493Y6460489D01*
X5219700Y6452107D01*
X5219700Y6438645D01*
X5222493Y6430518D01*
X5225034Y6424929D01*
X5230622Y6419595D01*
X5235956Y6416802D01*
X5246877Y6416802D01*
X5252465Y6419595D01*
X5257800Y6424929D01*
X5260593Y6430518D01*
X5278627Y6463029D02*
G01*
X5283961Y6465823D01*
X5292343Y6473952D01*
X5292343Y6416802D01*
X2099309Y6797294D02*
G01*
X2093975Y6794500D01*
X2088388Y6789165D01*
X2085847Y6783578D01*
X2085847Y6772655D01*
X2088388Y6767321D01*
X2093975Y6761734D01*
X2099309Y6759194D01*
X2107691Y6756400D01*
X2121154Y6756400D01*
X2129281Y6759194D01*
X2134870Y6761734D01*
X2140204Y6767321D01*
X2142997Y6772655D01*
X2142997Y6783578D01*
X2140204Y6789165D01*
X2134870Y6794500D01*
X2129281Y6797294D01*
X2085847Y6848094D02*
G01*
X2085847Y6820662D01*
X2110231Y6818121D01*
X2107691Y6820662D01*
X2104897Y6829044D01*
X2104897Y6837171D01*
X2107691Y6845300D01*
X2113025Y6850887D01*
X2121154Y6853428D01*
X2126741Y6853428D01*
X2134870Y6850887D01*
X2140204Y6845300D01*
X2142997Y6837171D01*
X2142997Y6829044D01*
X2140204Y6820662D01*
X2137663Y6818121D01*
X2132075Y6815328D01*
X2175509Y8740394D02*
G01*
X2170175Y8737600D01*
X2164588Y8732265D01*
X2162047Y8726678D01*
X2162047Y8715755D01*
X2164588Y8710421D01*
X2170175Y8704834D01*
X2175509Y8702294D01*
X2183891Y8699500D01*
X2197354Y8699500D01*
X2205481Y8702294D01*
X2211070Y8704834D01*
X2216404Y8710421D01*
X2219197Y8715755D01*
X2219197Y8726678D01*
X2216404Y8732265D01*
X2211070Y8737600D01*
X2205481Y8740394D01*
X2170175Y8791194D02*
G01*
X2164588Y8788400D01*
X2162047Y8780271D01*
X2162047Y8774684D01*
X2164588Y8766555D01*
X2172970Y8761221D01*
X2186431Y8758428D01*
X2200147Y8758428D01*
X2211070Y8761221D01*
X2216404Y8766555D01*
X2219197Y8774684D01*
X2219197Y8777478D01*
X2216404Y8785605D01*
X2211070Y8791194D01*
X2202941Y8793987D01*
X2200147Y8793987D01*
X2192020Y8791194D01*
X2186431Y8785605D01*
X2183891Y8777478D01*
X2183891Y8774684D01*
X2186431Y8766555D01*
X2192020Y8761221D01*
X2200147Y8758428D01*
D13*
X7009891Y8040878D02*
G01*
X6999477Y8035544D01*
X6989063Y8025129D01*
X6983984Y8014970D01*
X6983984Y7994142D01*
X6989063Y7983728D01*
X6999477Y7973313D01*
X7009891Y7967979D01*
X7025640Y7962900D01*
X7051547Y7962900D01*
X7067041Y7967979D01*
X7077456Y7973313D01*
X7087870Y7983728D01*
X7092950Y7994142D01*
X7092950Y8014970D01*
X7087870Y8025129D01*
X7077456Y8035544D01*
X7067041Y8040878D01*
X6983984Y8075168D02*
G01*
X7092950Y8075168D01*
X6983984Y8075168D02*
G01*
X7092950Y8147812D01*
X6983984Y8147812D02*
G01*
X7092950Y8147812D01*
X7004811Y8182102D02*
G01*
X6999477Y8192515D01*
X6983984Y8208010D01*
X7092950Y8208010D01*
D10*
X5953252Y7972044D02*
G01*
X5950711Y7977378D01*
X5945124Y7982965D01*
X5939790Y7985505D01*
X5931408Y7988300D01*
X5917945Y7988300D01*
X5909818Y7985505D01*
X5904229Y7982965D01*
X5898895Y7977378D01*
X5896102Y7972044D01*
X5896102Y7961121D01*
X5898895Y7955534D01*
X5904229Y7950200D01*
X5909818Y7947405D01*
X5917945Y7944612D01*
X5931408Y7944612D01*
X5939790Y7947405D01*
X5945124Y7950200D01*
X5950711Y7955534D01*
X5953252Y7961121D01*
X5953252Y7972044D01*
X5907024Y7963662D02*
G01*
X5890513Y7947405D01*
X5942329Y7926578D02*
G01*
X5945124Y7921244D01*
X5953252Y7913115D01*
X5896102Y7913115D01*
X6918452Y7086600D02*
G01*
X6877558Y7086600D01*
X6869429Y7083805D01*
X6864095Y7078471D01*
X6861302Y7070344D01*
X6861302Y7064755D01*
X6864095Y7056628D01*
X6869429Y7051039D01*
X6877558Y7048500D01*
X6918452Y7048500D01*
X6910324Y6997700D02*
G01*
X6915911Y7000494D01*
X6918452Y7008621D01*
X6918452Y7013955D01*
X6915911Y7022337D01*
X6907529Y7027671D01*
X6894068Y7030465D01*
X6880352Y7030465D01*
X6869429Y7027671D01*
X6864095Y7022337D01*
X6861302Y7013955D01*
X6861302Y7011415D01*
X6864095Y7003034D01*
X6869429Y6997700D01*
X6877558Y6994905D01*
X6880352Y6994905D01*
X6888479Y6997700D01*
X6894068Y7003034D01*
X6896608Y7011415D01*
X6896608Y7013955D01*
X6894068Y7022337D01*
X6888479Y7027671D01*
X6880352Y7030465D01*
X5321300Y8556752D02*
G01*
X5321300Y8499602D01*
X5321300Y8556752D02*
G01*
X5345938Y8556752D01*
X5354065Y8554212D01*
X5356859Y8551418D01*
X5359400Y8545829D01*
X5359400Y8540495D01*
X5356859Y8534908D01*
X5354065Y8532368D01*
X5345938Y8529574D01*
X5321300Y8529574D01*
X5340350Y8529574D02*
G01*
X5359400Y8499602D01*
X5377434Y8545829D02*
G01*
X5383022Y8548624D01*
X5391150Y8556752D01*
X5391150Y8499602D01*
X5411724Y8543289D02*
G01*
X5411724Y8545829D01*
X5414518Y8551418D01*
X5417311Y8554212D01*
X5422645Y8556752D01*
X5433568Y8556752D01*
X5439156Y8554212D01*
X5441950Y8551418D01*
X5444490Y8545829D01*
X5444490Y8540495D01*
X5441950Y8534908D01*
X5436361Y8526779D01*
X5409184Y8499602D01*
X5447284Y8499602D01*
X5851652Y8420100D02*
G01*
X5794502Y8420100D01*
X5851652Y8420100D02*
G01*
X5851652Y8395462D01*
X5849111Y8387334D01*
X5846318Y8384539D01*
X5840729Y8382000D01*
X5835395Y8382000D01*
X5829808Y8384539D01*
X5827268Y8387334D01*
X5824474Y8395462D01*
X5824474Y8420100D01*
X5824474Y8401050D02*
G01*
X5794502Y8382000D01*
X5840729Y8363965D02*
G01*
X5843524Y8358378D01*
X5851652Y8350250D01*
X5794502Y8350250D01*
X5851652Y8326881D02*
G01*
X5851652Y8296910D01*
X5829808Y8313165D01*
X5829808Y8305037D01*
X5827268Y8299450D01*
X5824474Y8296910D01*
X5816345Y8294115D01*
X5810758Y8294115D01*
X5802629Y8296910D01*
X5797295Y8302244D01*
X5794502Y8310371D01*
X5794502Y8318754D01*
X5797295Y8326881D01*
X5799836Y8329676D01*
X5805424Y8332215D01*
X6956552Y8356600D02*
G01*
X6899402Y8356600D01*
X6956552Y8356600D02*
G01*
X6956552Y8331962D01*
X6954011Y8323834D01*
X6951218Y8321039D01*
X6945629Y8318500D01*
X6940295Y8318500D01*
X6934708Y8321039D01*
X6932168Y8323834D01*
X6929374Y8331962D01*
X6929374Y8356600D01*
X6929374Y8337550D02*
G01*
X6899402Y8318500D01*
X6945629Y8300465D02*
G01*
X6948424Y8294878D01*
X6956552Y8286750D01*
X6899402Y8286750D01*
X6956552Y8241537D02*
G01*
X6918452Y8268715D01*
X6918452Y8227821D01*
X6956552Y8241537D02*
G01*
X6899402Y8241537D01*
X6540500Y6550152D02*
G01*
X6540500Y6493002D01*
X6540500Y6550152D02*
G01*
X6565138Y6550152D01*
X6573265Y6547612D01*
X6576059Y6544818D01*
X6578600Y6539229D01*
X6578600Y6533895D01*
X6576059Y6528307D01*
X6573265Y6525768D01*
X6565138Y6522973D01*
X6540500Y6522973D01*
X6559550Y6522973D02*
G01*
X6578600Y6493002D01*
X6596634Y6539229D02*
G01*
X6602222Y6542023D01*
X6610350Y6550152D01*
X6610350Y6493002D01*
X6666484Y6550152D02*
G01*
X6639306Y6493002D01*
X6628384Y6550152D02*
G01*
X6666484Y6550152D01*
X7543825Y7362926D02*
G01*
X7543825Y7322032D01*
X7546619Y7313904D01*
X7551953Y7308570D01*
X7560081Y7305776D01*
X7565669Y7305776D01*
X7573797Y7308570D01*
X7579131Y7313904D01*
X7581925Y7322032D01*
X7581925Y7362926D01*
X7602753Y7349464D02*
G01*
X7602753Y7352258D01*
X7605547Y7357592D01*
X7608087Y7360386D01*
X7613675Y7362926D01*
X7624597Y7362926D01*
X7629931Y7360386D01*
X7632725Y7357592D01*
X7635519Y7352258D01*
X7635519Y7346670D01*
X7632725Y7341336D01*
X7627137Y7332954D01*
X7599959Y7305776D01*
X7638059Y7305776D01*
X5384800Y6918452D02*
G01*
X5384800Y6877558D01*
X5387593Y6869429D01*
X5392927Y6864095D01*
X5401056Y6861302D01*
X5406643Y6861302D01*
X5414772Y6864095D01*
X5420359Y6869429D01*
X5422900Y6877558D01*
X5422900Y6918452D01*
X5468365Y6918452D02*
G01*
X5440934Y6880352D01*
X5481827Y6880352D01*
X5468365Y6918452D02*
G01*
X5468365Y6861302D01*
D13*
X5613400Y5944615D02*
G01*
X5613400Y5866637D01*
X5618479Y5851144D01*
X5628893Y5840729D01*
X5644641Y5835650D01*
X5655056Y5835650D01*
X5670550Y5840729D01*
X5680963Y5851144D01*
X5686043Y5866637D01*
X5686043Y5944615D01*
X5793231Y5929121D02*
G01*
X5782818Y5939536D01*
X5767070Y5944615D01*
X5746495Y5944615D01*
X5730747Y5939536D01*
X5720334Y5929121D01*
X5720334Y5918707D01*
X5725668Y5908294D01*
X5730747Y5902960D01*
X5741161Y5897879D01*
X5772404Y5887465D01*
X5782818Y5882386D01*
X5787897Y5877052D01*
X5793231Y5866637D01*
X5793231Y5851144D01*
X5782818Y5840729D01*
X5767070Y5835650D01*
X5746495Y5835650D01*
X5730747Y5840729D01*
X5720334Y5851144D01*
X5827522Y5944615D02*
G01*
X5827522Y5835650D01*
X5827522Y5944615D02*
G01*
X5874258Y5944615D01*
X5889752Y5939536D01*
X5895086Y5934202D01*
X5900165Y5923787D01*
X5900165Y5913373D01*
X5895086Y5902960D01*
X5889752Y5897879D01*
X5874258Y5892800D01*
X5827522Y5892800D02*
G01*
X5874258Y5892800D01*
X5889752Y5887465D01*
X5895086Y5882386D01*
X5900165Y5871971D01*
X5900165Y5856223D01*
X5895086Y5845810D01*
X5889752Y5840729D01*
X5874258Y5835650D01*
X5827522Y5835650D01*
X6012434Y5918707D02*
G01*
X6007100Y5929121D01*
X5996940Y5939536D01*
X5986525Y5944615D01*
X5965697Y5944615D01*
X5955284Y5939536D01*
X5944870Y5929121D01*
X5939790Y5918707D01*
X5934456Y5902960D01*
X5934456Y5877052D01*
X5939790Y5861557D01*
X5944870Y5851144D01*
X5955284Y5840729D01*
X5965697Y5835650D01*
X5986525Y5835650D01*
X5996940Y5840729D01*
X6007100Y5851144D01*
X6012434Y5861557D01*
X6046724Y5923787D02*
G01*
X6057138Y5929121D01*
X6072631Y5944615D01*
X6072631Y5835650D01*
D10*
X5571490Y8010905D02*
G01*
X5576824Y8013700D01*
X5582411Y8019034D01*
X5584952Y8024621D01*
X5584952Y8035544D01*
X5582411Y8040878D01*
X5576824Y8046465D01*
X5571490Y8049005D01*
X5563108Y8051800D01*
X5549645Y8051800D01*
X5541518Y8049005D01*
X5535929Y8046465D01*
X5530595Y8040878D01*
X5527802Y8035544D01*
X5527802Y8024621D01*
X5530595Y8019034D01*
X5535929Y8013700D01*
X5541518Y8010905D01*
X5584952Y7965694D02*
G01*
X5546852Y7992871D01*
X5546852Y7951978D01*
X5584952Y7965694D02*
G01*
X5527802Y7965694D01*
G36*
X5168188Y8798966D02*
G01*
X5142230Y8763000D01*
X5167223Y8726982D01*
G37*
G36*
X5513476Y8799017D02*
G01*
X5512511Y8727033D01*
X5538470Y8763000D01*
G37*
D12*
X4978400Y6997700D02*
G01*
X5118100Y6997700D01*
X4978400Y6997700D02*
G01*
X4978400Y6845300D01*
D13*
X5957239Y6461521D02*
G01*
X5957239Y6533324D01*
X6056960Y6533324D01*
X6056960Y6461521D01*
X5957239Y6416278D02*
G01*
X5957239Y6344475D01*
X6056960Y6344475D01*
X6056960Y6416278D01*
X5752160Y6416278D02*
G01*
X5752160Y6344475D01*
X5652439Y6344475D01*
X5652439Y6416278D01*
X5752160Y6461521D02*
G01*
X5752160Y6533324D01*
X5652439Y6533324D01*
X5652439Y6461521D01*
D14*
X2552738Y7935274D02*
G01*
X2552738Y7949046D01*
X2552738Y7735275D02*
G01*
X2552738Y7749047D01*
X2552738Y7535275D02*
G01*
X2552738Y7549047D01*
X2552738Y7335276D02*
G01*
X2552738Y7349048D01*
X2552738Y7135276D02*
G01*
X2552738Y7149048D01*
X2552738Y6935276D02*
G01*
X2552738Y6949048D01*
X2552738Y6735277D02*
G01*
X2552738Y6749049D01*
X2759725Y6492405D02*
G01*
X2552738Y6492405D01*
X2552738Y6549049D01*
X2959521Y6492405D02*
G01*
X2945952Y6492405D01*
X3159394Y6492405D02*
G01*
X3145749Y6492405D01*
X3359470Y6492405D02*
G01*
X3345621Y6492405D01*
X3559393Y6492405D02*
G01*
X3545697Y6492405D01*
X3759393Y6492405D02*
G01*
X3745621Y6492405D01*
X4152684Y6549049D02*
G01*
X4152684Y6492405D01*
X3945620Y6492405D01*
X4152684Y6749049D02*
G01*
X4152684Y6735277D01*
X4152684Y6949048D02*
G01*
X4152684Y6935276D01*
X4152684Y7149048D02*
G01*
X4152684Y7135276D01*
X4152684Y7349048D02*
G01*
X4152684Y7335276D01*
X4152684Y7549047D02*
G01*
X4152684Y7535275D01*
X4152684Y7749047D02*
G01*
X4152684Y7735275D01*
X4152684Y7949046D02*
G01*
X4152684Y7935274D01*
X2552738Y8135274D02*
G01*
X2552738Y8892181D01*
X4152684Y8892181D02*
G01*
X4152684Y8135274D01*
X3852684Y8292183D02*
G01*
X2852686Y8292183D01*
X2852686Y8792182D01*
X2952686Y8792182D01*
X2952686Y8492182D01*
X3052686Y8492182D01*
X3052686Y8792182D01*
X3152686Y8792182D01*
X3152686Y8492182D01*
X3252685Y8492182D01*
X3252685Y8792182D01*
X3352685Y8792182D01*
X3352685Y8492182D01*
X3452685Y8492182D01*
X3452685Y8792182D01*
X4052684Y8792182D01*
X2752686Y7992183D02*
G01*
X2752686Y6692186D01*
X3952684Y6692186D01*
X3952684Y7992183D01*
X2752686Y7992183D01*
X2652687Y8192183D02*
G01*
X4052684Y8192183D01*
X2552687Y8892181D02*
G01*
X4152684Y8892181D01*
D15*
X7836281Y8064500D02*
G01*
X7836281Y8154418D01*
X7776336Y8154418D01*
X7776336Y8064500D01*
X7836281Y8064500D01*
X7836281Y7924548D01*
X7581265Y7924548D01*
X7501509Y7924548D01*
X7246493Y7924548D01*
X7246493Y8064500D01*
X7246493Y8154418D01*
X7306436Y8154418D01*
X7306436Y8064500D01*
X7246493Y8064500D01*
X7306436Y8064500D02*
G01*
X7306436Y7984497D01*
X7501509Y7984497D01*
X7501509Y7924548D01*
X7776336Y8064500D02*
G01*
X7776336Y7984497D01*
X7581265Y7984497D01*
X7581265Y7924548D01*
D14*
X4391997Y8658999D02*
G01*
X4752002Y8658999D01*
X4391997Y8359000D02*
G01*
X4752002Y8359000D01*
X4391997Y8658999D02*
G01*
X4391997Y8652113D01*
X4391997Y8525885D02*
G01*
X4391997Y8492114D01*
X4391997Y8365886D02*
G01*
X4391997Y8359000D01*
X4752002Y8658999D02*
G01*
X4752002Y8652113D01*
X4752002Y8525885D02*
G01*
X4752002Y8492114D01*
X4752002Y8365886D02*
G01*
X4752002Y8359000D01*
X6144996Y8266709D02*
G01*
X6144996Y8776715D01*
X6144996Y8776690D02*
G01*
X6555003Y8776690D01*
X6555003Y8776690D02*
G01*
X6555003Y8266684D01*
X6269990Y8266709D02*
G01*
X6144996Y8266709D01*
X6430009Y8266709D02*
G01*
X6555003Y8266709D01*
D13*
X4816078Y7989239D02*
G01*
X4744275Y7989239D01*
X4744275Y8088960D01*
X4816078Y8088960D01*
X4861321Y7989239D02*
G01*
X4933124Y7989239D01*
X4933124Y8088960D01*
X4861321Y8088960D01*
X4816078Y7786039D02*
G01*
X4744275Y7786039D01*
X4744275Y7885760D01*
X4816078Y7885760D01*
X4861321Y7786039D02*
G01*
X4933124Y7786039D01*
X4933124Y7885760D01*
X4861321Y7885760D01*
D14*
X6779442Y5948288D02*
G01*
X6657002Y5948288D01*
X7029442Y5948288D02*
G01*
X6944558Y5948288D01*
X7279441Y5948288D02*
G01*
X7194557Y5948288D01*
X7566997Y5948288D02*
G01*
X7444557Y5948288D01*
X7289800Y5595493D02*
G01*
X7289800Y5189093D01*
X7112000Y5189093D01*
X7112000Y5595493D01*
X6657002Y5598289D02*
G01*
X6657002Y5948288D01*
X7566997Y5598289D02*
G01*
X6657002Y5598289D01*
X7566997Y5948288D02*
G01*
X7566997Y5598289D01*
X2558000Y6036398D02*
G01*
X2367000Y6036398D01*
X2367000Y5871400D01*
X2494000Y5596399D02*
G01*
X3085998Y5596399D01*
X3028000Y6035400D02*
G01*
X3222000Y6035400D01*
X3222000Y5865401D01*
D13*
X2250678Y7887639D02*
G01*
X2178875Y7887639D01*
X2178875Y7987360D01*
X2250678Y7987360D01*
X2295921Y7887639D02*
G01*
X2367724Y7887639D01*
X2367724Y7987360D01*
X2295921Y7987360D01*
D16*
X5119199Y8690000D02*
G01*
X5004201Y8690000D01*
X5004201Y8834998D01*
X5124201Y8834998D01*
X5186199Y8835999D02*
G01*
X5310200Y8835999D01*
X5310200Y8691001D01*
X5186199Y8691001D01*
X5004201Y8690000D02*
G01*
X5001199Y8690000D01*
X4981199Y8710000D01*
X4981199Y8811999D01*
X4984201Y8814998D01*
X5004201Y8834998D01*
X5561500Y8835999D02*
G01*
X5676498Y8835999D01*
X5676498Y8691001D01*
X5556498Y8691001D01*
X5494500Y8690000D02*
G01*
X5370499Y8690000D01*
X5370499Y8834998D01*
X5494500Y8834998D01*
X5676498Y8835999D02*
G01*
X5679500Y8835999D01*
X5699500Y8815999D01*
X5699500Y8714000D01*
X5696498Y8711001D01*
X5676498Y8691001D01*
D13*
X5282260Y7835869D02*
G01*
X5282260Y7914878D01*
X5182539Y7914878D02*
G01*
X5182539Y7835869D01*
X5197779Y7820629D02*
G01*
X5267020Y7820629D01*
X5282260Y8039130D02*
G01*
X5282260Y7960121D01*
X5182539Y7960121D02*
G01*
X5182539Y8039130D01*
X5197779Y8054370D02*
G01*
X5267020Y8054370D01*
X2425730Y6691960D02*
G01*
X2346721Y6691960D01*
X2346721Y6592239D02*
G01*
X2425730Y6592239D01*
X2440970Y6607479D02*
G01*
X2440970Y6676720D01*
X2222469Y6691960D02*
G01*
X2301478Y6691960D01*
X2301478Y6592239D02*
G01*
X2222469Y6592239D01*
X2207229Y6607479D02*
G01*
X2207229Y6676720D01*
D14*
X6236398Y6665622D02*
G01*
X6236398Y6745625D01*
X6347373Y6634637D02*
G01*
X6267376Y6634637D01*
X6347373Y6776603D02*
G01*
X6267376Y6776603D01*
X6404963Y6634055D02*
G01*
X6484962Y6634055D01*
X6515945Y6665038D02*
G01*
X6515945Y6745036D01*
X6404963Y6776016D02*
G01*
X6484962Y6776016D01*
D13*
X5167960Y7264369D02*
G01*
X5167960Y7343378D01*
X5068239Y7343378D02*
G01*
X5068239Y7264369D01*
X5083479Y7249129D02*
G01*
X5152720Y7249129D01*
X5167960Y7467630D02*
G01*
X5167960Y7388621D01*
X5068239Y7388621D02*
G01*
X5068239Y7467630D01*
X5083479Y7482870D02*
G01*
X5152720Y7482870D01*
X2424760Y7432278D02*
G01*
X2424760Y7360475D01*
X2325039Y7360475D01*
X2325039Y7432278D01*
X2424760Y7477521D02*
G01*
X2424760Y7549324D01*
X2325039Y7549324D01*
X2325039Y7477521D01*
X6613921Y7834960D02*
G01*
X6685724Y7834960D01*
X6685724Y7735239D01*
X6613921Y7735239D01*
X6568678Y7834960D02*
G01*
X6496875Y7834960D01*
X6496875Y7735239D01*
X6568678Y7735239D01*
X4480321Y7098360D02*
G01*
X4552124Y7098360D01*
X4552124Y6998639D01*
X4480321Y6998639D01*
X4435078Y7098360D02*
G01*
X4363275Y7098360D01*
X4363275Y6998639D01*
X4435078Y6998639D01*
X4480321Y6882460D02*
G01*
X4552124Y6882460D01*
X4552124Y6782739D01*
X4480321Y6782739D01*
X4435078Y6882460D02*
G01*
X4363275Y6882460D01*
X4363275Y6782739D01*
X4435078Y6782739D01*
X2325039Y8557021D02*
G01*
X2325039Y8628824D01*
X2424760Y8628824D01*
X2424760Y8557021D01*
X2325039Y8511778D02*
G01*
X2325039Y8439975D01*
X2424760Y8439975D01*
X2424760Y8511778D01*
X2295921Y7822260D02*
G01*
X2367724Y7822260D01*
X2367724Y7722539D01*
X2295921Y7722539D01*
X2250678Y7822260D02*
G01*
X2178875Y7822260D01*
X2178875Y7722539D01*
X2250678Y7722539D01*
X7430439Y6448821D02*
G01*
X7430439Y6520624D01*
X7530160Y6520624D01*
X7530160Y6448821D01*
X7430439Y6403578D02*
G01*
X7430439Y6331775D01*
X7530160Y6331775D01*
X7530160Y6403578D01*
X7114778Y6985939D02*
G01*
X7042975Y6985939D01*
X7042975Y7085660D01*
X7114778Y7085660D01*
X7160021Y6985939D02*
G01*
X7231824Y6985939D01*
X7231824Y7085660D01*
X7160021Y7085660D01*
X4611039Y7160021D02*
G01*
X4611039Y7231824D01*
X4710760Y7231824D01*
X4710760Y7160021D01*
X4611039Y7114778D02*
G01*
X4611039Y7042975D01*
X4710760Y7042975D01*
X4710760Y7114778D01*
X4689078Y7595539D02*
G01*
X4617275Y7595539D01*
X4617275Y7695260D01*
X4689078Y7695260D01*
X4734321Y7595539D02*
G01*
X4806124Y7595539D01*
X4806124Y7695260D01*
X4734321Y7695260D01*
X6642079Y6653281D02*
G01*
X6819920Y6653281D01*
X6642079Y6961118D02*
G01*
X6819920Y6961118D01*
D14*
X6997700Y6311900D02*
G01*
X6997700Y6413500D01*
X6896100Y6403339D02*
G01*
X6997700Y6362700D01*
X6896100Y6322060D02*
G01*
X6896100Y6403339D01*
X6997700Y6362700D02*
G01*
X6896100Y6322060D01*
X6796900Y6462699D02*
G01*
X7096899Y6462699D01*
X6796900Y6262700D02*
G01*
X7096899Y6262700D01*
X7023100Y6362700D02*
G01*
X6870700Y6362700D01*
D13*
X7242578Y6451379D02*
G01*
X7387821Y6451379D01*
X7387821Y6554541D01*
X7242578Y6756620D02*
G01*
X7387821Y6756620D01*
X7387821Y6653458D01*
X7242578Y6558460D02*
G01*
X7242578Y6649539D01*
X7180021Y6804639D02*
G01*
X7275908Y6804639D01*
X7275908Y6936760D01*
X7180021Y6936760D01*
X7094778Y6804639D02*
G01*
X6998891Y6804639D01*
X6998891Y6936760D01*
X7094778Y6936760D01*
D14*
X7837777Y7341298D02*
G01*
X7757774Y7341298D01*
X7868762Y7452273D02*
G01*
X7868762Y7372276D01*
X7726796Y7452273D02*
G01*
X7726796Y7372276D01*
X7869344Y7509863D02*
G01*
X7869344Y7589862D01*
X7838361Y7620845D02*
G01*
X7758363Y7620845D01*
X7727383Y7509863D02*
G01*
X7727383Y7589862D01*
X7240877Y7417498D02*
G01*
X7160874Y7417498D01*
X7271862Y7528473D02*
G01*
X7271862Y7448476D01*
X7129896Y7528473D02*
G01*
X7129896Y7448476D01*
X7272444Y7586063D02*
G01*
X7272444Y7666062D01*
X7241461Y7697045D02*
G01*
X7161463Y7697045D01*
X7130483Y7586063D02*
G01*
X7130483Y7666062D01*
D13*
X4744178Y7449050D02*
G01*
X4744178Y7523619D01*
X4768750Y7523619D01*
X5009421Y7449050D02*
G01*
X5009421Y7523619D01*
X4984849Y7523619D01*
X4744178Y7282949D02*
G01*
X4744178Y7208380D01*
X4768750Y7208380D01*
X5009421Y7282949D02*
G01*
X5009421Y7208380D01*
X4984849Y7208380D01*
D14*
X5612701Y6491577D02*
G01*
X5612701Y6411574D01*
X5501726Y6522562D02*
G01*
X5581723Y6522562D01*
X5501726Y6380596D02*
G01*
X5581723Y6380596D01*
X5444136Y6523144D02*
G01*
X5364137Y6523144D01*
X5333154Y6492161D02*
G01*
X5333154Y6412163D01*
X5444136Y6381183D02*
G01*
X5364137Y6381183D01*
X2450401Y6847177D02*
G01*
X2450401Y6767174D01*
X2339426Y6878162D02*
G01*
X2419423Y6878162D01*
X2339426Y6736196D02*
G01*
X2419423Y6736196D01*
X2281836Y6878744D02*
G01*
X2201837Y6878744D01*
X2170854Y6847761D02*
G01*
X2170854Y6767763D01*
X2281836Y6736783D02*
G01*
X2201837Y6736783D01*
X2144422Y8673401D02*
G01*
X2224425Y8673401D01*
X2113437Y8562426D02*
G01*
X2113437Y8642423D01*
X2255403Y8562426D02*
G01*
X2255403Y8642423D01*
X2112855Y8504836D02*
G01*
X2112855Y8424837D01*
X2143838Y8393854D02*
G01*
X2223836Y8393854D01*
X2254816Y8504836D02*
G01*
X2254816Y8424837D01*
X7927792Y7972882D02*
G01*
X7927792Y7928002D01*
X7657792Y7928002D01*
X7159795Y8319112D02*
G01*
X7159795Y8357006D01*
X7927792Y8357006D01*
X7927792Y8319112D01*
X7426792Y7921002D02*
G01*
X7159795Y7921002D01*
X7159795Y7972882D01*
D12*
X5605000Y8070999D02*
G01*
X5605000Y7931000D01*
X5824999Y8070999D02*
G01*
X5824999Y7931000D01*
X6634479Y7228839D02*
G01*
X6634479Y7068820D01*
X6634479Y7068820D02*
G01*
X6733540Y7068820D01*
X6634479Y7228839D02*
G01*
X6634479Y7388860D01*
X6634479Y7388860D02*
G01*
X6733540Y7388860D01*
X6733540Y7388860D02*
G01*
X6832600Y7388860D01*
X6832600Y7388860D02*
G01*
X6832600Y7228839D01*
X6733540Y7068820D02*
G01*
X6832600Y7068820D01*
X6832600Y7068820D02*
G01*
X6832600Y7228839D01*
D13*
X5198821Y8455639D02*
G01*
X5294708Y8455639D01*
X5294708Y8587760D01*
X5198821Y8587760D01*
X5113578Y8455639D02*
G01*
X5017691Y8455639D01*
X5017691Y8587760D01*
X5113578Y8587760D01*
X5750539Y8542578D02*
G01*
X5750539Y8446691D01*
X5882660Y8446691D01*
X5882660Y8542578D01*
X5750539Y8627821D02*
G01*
X5750539Y8723708D01*
X5882660Y8723708D01*
X5882660Y8627821D01*
X6885960Y8411921D02*
G01*
X6885960Y8507808D01*
X6753839Y8507808D01*
X6753839Y8411921D01*
X6885960Y8326678D02*
G01*
X6885960Y8230791D01*
X6753839Y8230791D01*
X6753839Y8326678D01*
X6418021Y6449039D02*
G01*
X6513908Y6449039D01*
X6513908Y6581160D01*
X6418021Y6581160D01*
X6332778Y6449039D02*
G01*
X6236891Y6449039D01*
X6236891Y6581160D01*
X6332778Y6581160D01*
D14*
X7428395Y7401493D02*
G01*
X7608397Y7401493D01*
X7428395Y7516492D02*
G01*
X7428395Y7596494D01*
X7428395Y7711495D02*
G01*
X7608397Y7711495D01*
X6337000Y7180999D02*
G01*
X6337000Y7551000D01*
X6337000Y7551000D02*
G01*
X5346999Y7551000D01*
X5346999Y7442200D01*
X5346700Y7302500D02*
G01*
X5346700Y7180999D01*
X5346999Y7180999D01*
X6337000Y7180999D01*
X5395102Y5832434D02*
G01*
X5395102Y6018725D01*
X6289100Y5460596D02*
G01*
X5395102Y5460596D01*
X5395102Y5608726D01*
X6289100Y5832398D02*
G01*
X6289100Y6018761D01*
X6289100Y5460596D02*
G01*
X6289100Y5608761D01*
X5462877Y7798498D02*
G01*
X5382874Y7798498D01*
X5493862Y7909473D02*
G01*
X5493862Y7829476D01*
X5351896Y7909473D02*
G01*
X5351896Y7829476D01*
X5494444Y7967063D02*
G01*
X5494444Y8047062D01*
X5463461Y8078045D02*
G01*
X5383463Y8078045D01*
X5352483Y7967063D02*
G01*
X5352483Y8047062D01*
G75*
G01*
X6269990Y8271713D02*
G02*
X6430010Y8271713I80010J-37528D01*
D13*
G75*
G01*
X5182540Y7835870D02*
G03*
X5197780Y7820630I15240J0D01*
G75*
G01*
X5267020Y7820630D02*
G03*
X5282260Y7835870I0J15240D01*
G75*
G01*
X5182540Y8039130D02*
G02*
X5197780Y8054370I15240J0D01*
G75*
G01*
X5267020Y8054370D02*
G02*
X5282260Y8039130I0J-15240D01*
G75*
G01*
X2425730Y6592240D02*
G03*
X2440970Y6607480I0J15240D01*
G75*
G01*
X2440970Y6676720D02*
G03*
X2425730Y6691960I-15240J0D01*
G75*
G01*
X2222470Y6592240D02*
G02*
X2207230Y6607480I0J15240D01*
G75*
G01*
X2207230Y6676720D02*
G02*
X2222470Y6691960I15240J0D01*
D14*
G75*
G01*
X6515951Y6665039D02*
G02*
X6484968Y6634056I-30983J0D01*
G75*
G01*
X6484968Y6776022D02*
G02*
X6515951Y6745036I0J-30983D01*
G75*
G01*
X6267381Y6634637D02*
G02*
X6236399Y6665623I0J30983D01*
G75*
G01*
X6236399Y6745620D02*
G02*
X6267381Y6776603I30982J0D01*
D13*
G75*
G01*
X5068240Y7264370D02*
G03*
X5083480Y7249130I15240J0D01*
G75*
G01*
X5152720Y7249130D02*
G03*
X5167960Y7264370I0J15240D01*
G75*
G01*
X5068240Y7467630D02*
G02*
X5083480Y7482870I15240J0D01*
G75*
G01*
X5152720Y7482870D02*
G02*
X5167960Y7467630I0J-15240D01*
D14*
G75*
G01*
X7838361Y7620851D02*
G02*
X7869344Y7589868I0J-30983D01*
G75*
G01*
X7727378Y7589868D02*
G02*
X7758364Y7620851I30983J0D01*
G75*
G01*
X7868763Y7372281D02*
G02*
X7837777Y7341299I-30983J0D01*
G75*
G01*
X7757780Y7341299D02*
G02*
X7726797Y7372281I0J30982D01*
G75*
G01*
X7241461Y7697051D02*
G02*
X7272444Y7666068I0J-30983D01*
G75*
G01*
X7130478Y7666068D02*
G02*
X7161464Y7697051I30983J0D01*
G75*
G01*
X7271863Y7448481D02*
G02*
X7240877Y7417499I-30983J0D01*
G75*
G01*
X7160880Y7417499D02*
G02*
X7129897Y7448481I0J30982D01*
G75*
G01*
X5333149Y6492161D02*
G02*
X5364132Y6523144I30983J0D01*
G75*
G01*
X5364132Y6381178D02*
G02*
X5333149Y6412164I0J30983D01*
G75*
G01*
X5581719Y6522563D02*
G02*
X5612701Y6491577I0J-30983D01*
G75*
G01*
X5612701Y6411580D02*
G02*
X5581719Y6380597I-30982J0D01*
G75*
G01*
X2170849Y6847761D02*
G02*
X2201832Y6878744I30983J0D01*
G75*
G01*
X2201832Y6736778D02*
G02*
X2170849Y6767764I0J30983D01*
G75*
G01*
X2419419Y6878163D02*
G02*
X2450401Y6847177I0J-30983D01*
G75*
G01*
X2450401Y6767180D02*
G02*
X2419419Y6736197I-30982J0D01*
G75*
G01*
X2143839Y8393849D02*
G02*
X2112856Y8424832I0J30983D01*
G75*
G01*
X2254822Y8424832D02*
G02*
X2223836Y8393849I-30983J0D01*
G75*
G01*
X2113437Y8642419D02*
G02*
X2144423Y8673401I30983J0D01*
G75*
G01*
X2224420Y8673401D02*
G02*
X2255403Y8642419I0J-30982D01*
D12*
G75*
G01*
X5605579Y7891907D02*
G03*
X5605579Y7891653I-12498J-127D01*
D14*
G75*
G01*
X5346700Y7442200D02*
G02*
X5346700Y7302500I0J-69850D01*
G75*
G01*
X5463461Y8078051D02*
G02*
X5494444Y8047068I0J-30983D01*
G75*
G01*
X5352478Y8047068D02*
G02*
X5383464Y8078051I30983J0D01*
G75*
G01*
X5493863Y7829481D02*
G02*
X5462877Y7798499I-30983J0D01*
G75*
G01*
X5382880Y7798499D02*
G02*
X5351897Y7829481I0J30982D01*
G75*
G01
X2517648Y8191500D02*
G03X2517648Y8191500I-28397J0D01*
G75*
G01
X4671187Y8509000D02*
G03X4671187Y8509000I-99187J0D01*
G75*
G01
X6617030Y8218703D02*
G03X6617030Y8218703I-17018J0D01*
D17*
G75*
G01
X2462708Y6077331D02*
G03X2462708Y6077331I-12497J0D01*
D18*
G75*
G01
X6615862Y6974027D02*
G03X6615862Y6974027I-15011J0D01*
D16*
G75*
G01
X4809287Y7157491D02*
G03X4809287Y7157491I-7493J0D01*
D14*
G75*
G01
X7698486Y7856982D02*
G03X7698486Y7856982I-12700J0D01*
D12*
G75*
G01
X6809740Y7129780D02*
G03X6809740Y7129780I-25400J0D01*
D14*
G75*
G01
X7683500Y7391400D02*
G03X7683500Y7391400I-12700J0D01*
M02*
