G04 Layer: TopPasteMaskLayer*
G04 EasyEDA v6.5.22, 2023-01-18 22:00:42*
G04 8e8bbbff4294455ebee03c083efee197,a9f00e695b414744abbaf3eb758947ea,10*
G04 Gerber Generator version 0.2*
G04 Scale: 100 percent, Rotated: No, Reflected: No *
G04 Dimensions in millimeters *
G04 leading zeros omitted , absolute positions ,4 integer and 5 decimal *
%FSLAX45Y45*%
%MOMM*%

%AMMACRO1*21,1,$1,$2,0,0,$3*%
%ADD10R,2.5000X1.4000*%
%ADD11R,1.4000X1.7000*%
%ADD12R,1.4000X0.8000*%
%ADD13R,1.2000X0.6000*%
%ADD14R,2.4000X3.3000*%
%ADD15R,1.2000X2.6000*%
%ADD16MACRO1,1.0008X2.7X0.0000*%
%ADD17R,0.6000X1.7000*%
%ADD18R,0.8999X1.0000*%
%ADD19R,0.8000X0.9000*%
%ADD20R,1.0720X0.5320*%
%ADD21R,1.2000X1.4000*%
%ADD22R,1.2500X0.7000*%
%ADD23C,1.5000*%
%ADD24R,0.9000X0.8000*%
%ADD25MACRO1,0.785X0.28X90.0000*%
%ADD26MACRO1,0.28X0.785X90.0000*%
%ADD27R,0.2800X0.7850*%
%ADD28R,0.8000X1.6000*%
%ADD29R,2.1000X3.0000*%
%ADD30R,0.4200X0.6000*%
%ADD31R,1.0000X0.5500*%
%ADD32R,1.0000X0.6000*%
%ADD33O,0.5999988X1.7999964*%
%ADD34O,0.0114X1.7999964*%

%LPD*%
G36*
X5984087Y6425387D02*
G01*
X5980074Y6421424D01*
X5980074Y6371336D01*
X5984087Y6367322D01*
X6030112Y6367322D01*
X6034125Y6371336D01*
X6034125Y6421424D01*
X6030112Y6425387D01*
G37*
G36*
X5984087Y6510477D02*
G01*
X5980074Y6506464D01*
X5980074Y6456375D01*
X5984087Y6452412D01*
X6030112Y6452412D01*
X6034125Y6456375D01*
X6034125Y6506464D01*
X6030112Y6510477D01*
G37*
G36*
X5679287Y6510477D02*
G01*
X5675274Y6506464D01*
X5675274Y6456375D01*
X5679287Y6452412D01*
X5725312Y6452412D01*
X5729325Y6456375D01*
X5729325Y6506464D01*
X5725312Y6510477D01*
G37*
G36*
X5679287Y6425387D02*
G01*
X5675274Y6421424D01*
X5675274Y6371336D01*
X5679287Y6367322D01*
X5725312Y6367322D01*
X5729325Y6371336D01*
X5729325Y6421424D01*
X5725312Y6425387D01*
G37*
G36*
X4856226Y8066125D02*
G01*
X4852212Y8062112D01*
X4852212Y8016087D01*
X4856226Y8012074D01*
X4906264Y8012074D01*
X4910277Y8016087D01*
X4910277Y8062112D01*
X4906264Y8066125D01*
G37*
G36*
X4771136Y8066125D02*
G01*
X4767122Y8062112D01*
X4767122Y8016087D01*
X4771136Y8012074D01*
X4821174Y8012074D01*
X4825187Y8016087D01*
X4825187Y8062112D01*
X4821174Y8066125D01*
G37*
G36*
X4856226Y7862925D02*
G01*
X4852212Y7858912D01*
X4852212Y7812887D01*
X4856226Y7808874D01*
X4906264Y7808874D01*
X4910277Y7812887D01*
X4910277Y7858912D01*
X4906264Y7862925D01*
G37*
G36*
X4771136Y7862925D02*
G01*
X4767122Y7858912D01*
X4767122Y7812887D01*
X4771136Y7808874D01*
X4821174Y7808874D01*
X4825187Y7812887D01*
X4825187Y7858912D01*
X4821174Y7862925D01*
G37*
G36*
X2290826Y7964525D02*
G01*
X2286812Y7960512D01*
X2286812Y7914487D01*
X2290826Y7910474D01*
X2340864Y7910474D01*
X2344877Y7914487D01*
X2344877Y7960512D01*
X2340864Y7964525D01*
G37*
G36*
X2205736Y7964525D02*
G01*
X2201722Y7960512D01*
X2201722Y7914487D01*
X2205736Y7910474D01*
X2255774Y7910474D01*
X2259787Y7914487D01*
X2259787Y7960512D01*
X2255774Y7964525D01*
G37*
G36*
X5209895Y8015478D02*
G01*
X5204917Y8010499D01*
X5204917Y7962493D01*
X5209895Y7955483D01*
X5254904Y7955483D01*
X5259882Y7962493D01*
X5259882Y8010499D01*
X5254904Y8015478D01*
G37*
G36*
X5209895Y7919516D02*
G01*
X5204917Y7912506D01*
X5204917Y7864500D01*
X5209895Y7859522D01*
X5254904Y7859522D01*
X5259882Y7864500D01*
X5259882Y7912506D01*
X5254904Y7919516D01*
G37*
G36*
X2251100Y6669582D02*
G01*
X2246122Y6664604D01*
X2246122Y6619595D01*
X2251100Y6614617D01*
X2299106Y6614617D01*
X2306116Y6619595D01*
X2306116Y6664604D01*
X2299106Y6669582D01*
G37*
G36*
X2349093Y6669582D02*
G01*
X2342083Y6664604D01*
X2342083Y6619595D01*
X2349093Y6614617D01*
X2397099Y6614617D01*
X2402078Y6619595D01*
X2402078Y6664604D01*
X2397099Y6669582D01*
G37*
G36*
X5095595Y7443978D02*
G01*
X5090617Y7438999D01*
X5090617Y7390993D01*
X5095595Y7383983D01*
X5140604Y7383983D01*
X5145582Y7390993D01*
X5145582Y7438999D01*
X5140604Y7443978D01*
G37*
G36*
X5095595Y7348016D02*
G01*
X5090617Y7341006D01*
X5090617Y7293000D01*
X5095595Y7288022D01*
X5140604Y7288022D01*
X5145582Y7293000D01*
X5145582Y7341006D01*
X5140604Y7348016D01*
G37*
G36*
X2351887Y7526477D02*
G01*
X2347874Y7522464D01*
X2347874Y7472375D01*
X2351887Y7468412D01*
X2397912Y7468412D01*
X2401925Y7472375D01*
X2401925Y7522464D01*
X2397912Y7526477D01*
G37*
G36*
X2351887Y7441387D02*
G01*
X2347874Y7437424D01*
X2347874Y7387336D01*
X2351887Y7383322D01*
X2397912Y7383322D01*
X2401925Y7387336D01*
X2401925Y7437424D01*
X2397912Y7441387D01*
G37*
G36*
X6523735Y7812125D02*
G01*
X6519722Y7808112D01*
X6519722Y7762087D01*
X6523735Y7758074D01*
X6573774Y7758074D01*
X6577787Y7762087D01*
X6577787Y7808112D01*
X6573774Y7812125D01*
G37*
G36*
X6608825Y7812125D02*
G01*
X6604812Y7808112D01*
X6604812Y7762087D01*
X6608825Y7758074D01*
X6658864Y7758074D01*
X6662877Y7762087D01*
X6662877Y7808112D01*
X6658864Y7812125D01*
G37*
G36*
X4390136Y7075525D02*
G01*
X4386122Y7071512D01*
X4386122Y7025487D01*
X4390136Y7021474D01*
X4440174Y7021474D01*
X4444187Y7025487D01*
X4444187Y7071512D01*
X4440174Y7075525D01*
G37*
G36*
X4475226Y7075525D02*
G01*
X4471212Y7071512D01*
X4471212Y7025487D01*
X4475226Y7021474D01*
X4525264Y7021474D01*
X4529277Y7025487D01*
X4529277Y7071512D01*
X4525264Y7075525D01*
G37*
G36*
X4390136Y6859625D02*
G01*
X4386122Y6855612D01*
X4386122Y6809587D01*
X4390136Y6805574D01*
X4440174Y6805574D01*
X4444187Y6809587D01*
X4444187Y6855612D01*
X4440174Y6859625D01*
G37*
G36*
X4475226Y6859625D02*
G01*
X4471212Y6855612D01*
X4471212Y6809587D01*
X4475226Y6805574D01*
X4525264Y6805574D01*
X4529277Y6809587D01*
X4529277Y6855612D01*
X4525264Y6859625D01*
G37*
G36*
X2351887Y8520887D02*
G01*
X2347874Y8516924D01*
X2347874Y8466836D01*
X2351887Y8462822D01*
X2397912Y8462822D01*
X2401925Y8466836D01*
X2401925Y8516924D01*
X2397912Y8520887D01*
G37*
G36*
X2351887Y8605977D02*
G01*
X2347874Y8601964D01*
X2347874Y8551875D01*
X2351887Y8547912D01*
X2397912Y8547912D01*
X2401925Y8551875D01*
X2401925Y8601964D01*
X2397912Y8605977D01*
G37*
G36*
X2205736Y7799425D02*
G01*
X2201722Y7795412D01*
X2201722Y7749387D01*
X2205736Y7745374D01*
X2255774Y7745374D01*
X2259787Y7749387D01*
X2259787Y7795412D01*
X2255774Y7799425D01*
G37*
G36*
X2290826Y7799425D02*
G01*
X2286812Y7795412D01*
X2286812Y7749387D01*
X2290826Y7745374D01*
X2340864Y7745374D01*
X2344877Y7749387D01*
X2344877Y7795412D01*
X2340864Y7799425D01*
G37*
G36*
X7457287Y6412687D02*
G01*
X7453274Y6408724D01*
X7453274Y6358636D01*
X7457287Y6354622D01*
X7503312Y6354622D01*
X7507325Y6358636D01*
X7507325Y6408724D01*
X7503312Y6412687D01*
G37*
G36*
X7457287Y6497777D02*
G01*
X7453274Y6493764D01*
X7453274Y6443675D01*
X7457287Y6439712D01*
X7503312Y6439712D01*
X7507325Y6443675D01*
X7507325Y6493764D01*
X7503312Y6497777D01*
G37*
G36*
X7154925Y7062825D02*
G01*
X7150912Y7058812D01*
X7150912Y7012787D01*
X7154925Y7008774D01*
X7204964Y7008774D01*
X7208977Y7012787D01*
X7208977Y7058812D01*
X7204964Y7062825D01*
G37*
G36*
X7069836Y7062825D02*
G01*
X7065822Y7058812D01*
X7065822Y7012787D01*
X7069836Y7008774D01*
X7119874Y7008774D01*
X7123887Y7012787D01*
X7123887Y7058812D01*
X7119874Y7062825D01*
G37*
G36*
X4637887Y7123887D02*
G01*
X4633874Y7119924D01*
X4633874Y7069836D01*
X4637887Y7065822D01*
X4683912Y7065822D01*
X4687925Y7069836D01*
X4687925Y7119924D01*
X4683912Y7123887D01*
G37*
G36*
X4637887Y7208977D02*
G01*
X4633874Y7204964D01*
X4633874Y7154875D01*
X4637887Y7150912D01*
X4683912Y7150912D01*
X4687925Y7154875D01*
X4687925Y7204964D01*
X4683912Y7208977D01*
G37*
G36*
X4729226Y7672425D02*
G01*
X4725212Y7668412D01*
X4725212Y7622387D01*
X4729226Y7618374D01*
X4779264Y7618374D01*
X4783277Y7622387D01*
X4783277Y7668412D01*
X4779264Y7672425D01*
G37*
G36*
X4644136Y7672425D02*
G01*
X4640122Y7668412D01*
X4640122Y7622387D01*
X4644136Y7618374D01*
X4694174Y7618374D01*
X4698187Y7622387D01*
X4698187Y7668412D01*
X4694174Y7672425D01*
G37*
G36*
X7176922Y6915708D02*
G01*
X7171893Y6910679D01*
X7171893Y6887921D01*
X7208875Y6887921D01*
X7208875Y6854901D01*
X7171893Y6854901D01*
X7171893Y6830720D01*
X7176922Y6825691D01*
X7256881Y6825691D01*
X7261910Y6830720D01*
X7261910Y6910679D01*
X7256881Y6915708D01*
G37*
G36*
X7017918Y6915708D02*
G01*
X7012889Y6910679D01*
X7012889Y6830720D01*
X7017918Y6825691D01*
X7096912Y6825691D01*
X7101890Y6830720D01*
X7101890Y6854901D01*
X7063892Y6854901D01*
X7063892Y6887921D01*
X7101890Y6887921D01*
X7101890Y6910679D01*
X7096912Y6915708D01*
G37*
G36*
X5195722Y8566708D02*
G01*
X5190693Y8561679D01*
X5190693Y8538921D01*
X5227675Y8538921D01*
X5227675Y8505901D01*
X5190693Y8505901D01*
X5190693Y8481720D01*
X5195722Y8476691D01*
X5275681Y8476691D01*
X5280710Y8481720D01*
X5280710Y8561679D01*
X5275681Y8566708D01*
G37*
G36*
X5036718Y8566708D02*
G01*
X5031689Y8561679D01*
X5031689Y8481720D01*
X5036718Y8476691D01*
X5115712Y8476691D01*
X5120690Y8481720D01*
X5120690Y8505901D01*
X5082692Y8505901D01*
X5082692Y8538921D01*
X5120690Y8538921D01*
X5120690Y8561679D01*
X5115712Y8566708D01*
G37*
G36*
X5776620Y8550706D02*
G01*
X5771591Y8545677D01*
X5771591Y8465718D01*
X5776620Y8460689D01*
X5856579Y8460689D01*
X5861608Y8465718D01*
X5861608Y8545677D01*
X5856579Y8550706D01*
X5833821Y8550706D01*
X5833821Y8513673D01*
X5800801Y8513673D01*
X5800801Y8550706D01*
G37*
G36*
X5776620Y8709710D02*
G01*
X5771591Y8704681D01*
X5771591Y8625687D01*
X5776620Y8620709D01*
X5800801Y8620709D01*
X5800801Y8658707D01*
X5833821Y8658707D01*
X5833821Y8620709D01*
X5856579Y8620709D01*
X5861608Y8625687D01*
X5861608Y8704681D01*
X5856579Y8709710D01*
G37*
G36*
X6779920Y8493810D02*
G01*
X6774891Y8488781D01*
X6774891Y8408822D01*
X6779920Y8403793D01*
X6802678Y8403793D01*
X6802678Y8440826D01*
X6835698Y8440826D01*
X6835698Y8403793D01*
X6859879Y8403793D01*
X6864908Y8408822D01*
X6864908Y8488781D01*
X6859879Y8493810D01*
G37*
G36*
X6779920Y8333790D02*
G01*
X6774891Y8328812D01*
X6774891Y8249818D01*
X6779920Y8244789D01*
X6859879Y8244789D01*
X6864908Y8249818D01*
X6864908Y8328812D01*
X6859879Y8333790D01*
X6835698Y8333790D01*
X6835698Y8295792D01*
X6802678Y8295792D01*
X6802678Y8333790D01*
G37*
G36*
X6414922Y6560108D02*
G01*
X6409893Y6555079D01*
X6409893Y6532321D01*
X6446875Y6532321D01*
X6446875Y6499301D01*
X6409893Y6499301D01*
X6409893Y6475120D01*
X6414922Y6470091D01*
X6494881Y6470091D01*
X6499910Y6475120D01*
X6499910Y6555079D01*
X6494881Y6560108D01*
G37*
G36*
X6255918Y6560108D02*
G01*
X6250889Y6555079D01*
X6250889Y6475120D01*
X6255918Y6470091D01*
X6334912Y6470091D01*
X6339890Y6475120D01*
X6339890Y6499301D01*
X6301892Y6499301D01*
X6301892Y6532321D01*
X6339890Y6532321D01*
X6339890Y6555079D01*
X6334912Y6560108D01*
G37*
G36*
X5408726Y6240475D02*
G01*
X5401665Y6240018D01*
X5398160Y6239510D01*
X5391302Y6237782D01*
X5387949Y6236665D01*
X5381498Y6233769D01*
X5375452Y6230061D01*
X5369864Y6225743D01*
X5364886Y6220714D01*
X5360517Y6215126D01*
X5356860Y6209080D01*
X5353964Y6202629D01*
X5351830Y6195872D01*
X5350560Y6188913D01*
X5350154Y6181852D01*
X5350154Y6094933D01*
X5351018Y6088024D01*
X5351729Y6084620D01*
X5353812Y6077966D01*
X5356707Y6071616D01*
X5360263Y6065672D01*
X5364581Y6060186D01*
X5369509Y6055258D01*
X5374995Y6050940D01*
X5380990Y6047333D01*
X5387340Y6044488D01*
X5390591Y6043320D01*
X5397398Y6041644D01*
X5404307Y6040831D01*
X5410352Y6040729D01*
X5417566Y6041136D01*
X5424627Y6042456D01*
X5431485Y6044590D01*
X5438038Y6047536D01*
X5444185Y6051245D01*
X5449824Y6055664D01*
X5454904Y6060744D01*
X5459374Y6066434D01*
X5463082Y6072581D01*
X5466029Y6079134D01*
X5468162Y6085992D01*
X5469483Y6093053D01*
X5469890Y6100216D01*
X5469890Y6186271D01*
X5469026Y6193180D01*
X5468315Y6196584D01*
X5466232Y6203238D01*
X5463387Y6209588D01*
X5459780Y6215532D01*
X5455462Y6221018D01*
X5450535Y6225946D01*
X5445048Y6230264D01*
X5439105Y6233871D01*
X5432755Y6236716D01*
X5426100Y6238798D01*
X5419242Y6240018D01*
X5415788Y6240373D01*
G37*
G36*
X6272733Y6240475D02*
G01*
X6265672Y6240018D01*
X6262166Y6239510D01*
X6255308Y6237782D01*
X6251956Y6236665D01*
X6245504Y6233769D01*
X6239459Y6230061D01*
X6233871Y6225743D01*
X6228892Y6220714D01*
X6224524Y6215126D01*
X6220866Y6209080D01*
X6217970Y6202629D01*
X6215837Y6195872D01*
X6214567Y6188913D01*
X6214160Y6181852D01*
X6214160Y6094933D01*
X6215024Y6088024D01*
X6215735Y6084620D01*
X6217818Y6077966D01*
X6220714Y6071616D01*
X6224270Y6065672D01*
X6228588Y6060186D01*
X6233515Y6055258D01*
X6239002Y6050940D01*
X6244996Y6047333D01*
X6251346Y6044488D01*
X6254597Y6043320D01*
X6261404Y6041644D01*
X6268313Y6040831D01*
X6274409Y6040729D01*
X6281572Y6041136D01*
X6288633Y6042456D01*
X6295491Y6044590D01*
X6302044Y6047536D01*
X6308191Y6051245D01*
X6313830Y6055664D01*
X6318910Y6060744D01*
X6323380Y6066434D01*
X6327089Y6072581D01*
X6330035Y6079134D01*
X6332169Y6085992D01*
X6333490Y6093053D01*
X6333896Y6100216D01*
X6333896Y6186271D01*
X6333032Y6193180D01*
X6332321Y6196584D01*
X6330238Y6203238D01*
X6327394Y6209588D01*
X6323787Y6215532D01*
X6319469Y6221018D01*
X6314541Y6225946D01*
X6309055Y6230264D01*
X6303111Y6233871D01*
X6296761Y6236716D01*
X6290106Y6238798D01*
X6283248Y6240018D01*
X6279794Y6240373D01*
G37*
G36*
X5409031Y5812332D02*
G01*
X5401970Y5811926D01*
X5394960Y5810656D01*
X5388152Y5808522D01*
X5381650Y5805627D01*
X5375605Y5801918D01*
X5369966Y5797550D01*
X5364937Y5792520D01*
X5360568Y5786932D01*
X5356910Y5780836D01*
X5353964Y5774334D01*
X5351830Y5767527D01*
X5350560Y5760567D01*
X5350154Y5753455D01*
X5350357Y5688431D01*
X5350814Y5681421D01*
X5352084Y5674563D01*
X5354269Y5667959D01*
X5357215Y5661609D01*
X5360974Y5655716D01*
X5365445Y5650331D01*
X5370525Y5645556D01*
X5376164Y5641441D01*
X5382310Y5638088D01*
X5388762Y5635498D01*
X5395569Y5633770D01*
X5402478Y5632907D01*
X5410708Y5632805D01*
X5417820Y5633212D01*
X5424881Y5634532D01*
X5431688Y5636666D01*
X5438190Y5639562D01*
X5444337Y5643270D01*
X5449976Y5647690D01*
X5455005Y5652770D01*
X5459425Y5658358D01*
X5463133Y5664504D01*
X5466080Y5671007D01*
X5467248Y5674410D01*
X5468924Y5681319D01*
X5469788Y5688431D01*
X5470042Y5743244D01*
X5469940Y5758332D01*
X5469128Y5765190D01*
X5467451Y5771946D01*
X5466334Y5775248D01*
X5463438Y5781548D01*
X5459882Y5787491D01*
X5455564Y5792978D01*
X5450687Y5797905D01*
X5445201Y5802172D01*
X5439257Y5805779D01*
X5432907Y5808624D01*
X5426303Y5810707D01*
X5419445Y5811926D01*
X5412536Y5812332D01*
G37*
G36*
X6273038Y5812332D02*
G01*
X6265976Y5811926D01*
X6258966Y5810656D01*
X6252159Y5808522D01*
X6245656Y5805627D01*
X6239611Y5801918D01*
X6233972Y5797550D01*
X6228943Y5792520D01*
X6224574Y5786932D01*
X6220917Y5780836D01*
X6217970Y5774334D01*
X6215837Y5767527D01*
X6214567Y5760567D01*
X6214160Y5753455D01*
X6214364Y5688431D01*
X6214821Y5681421D01*
X6216091Y5674563D01*
X6218275Y5667959D01*
X6221222Y5661609D01*
X6224981Y5655716D01*
X6229451Y5650331D01*
X6234531Y5645556D01*
X6240170Y5641441D01*
X6246317Y5638088D01*
X6252768Y5635498D01*
X6259576Y5633770D01*
X6266484Y5632907D01*
X6274714Y5632805D01*
X6281826Y5633212D01*
X6288887Y5634532D01*
X6295694Y5636666D01*
X6302197Y5639562D01*
X6308344Y5643270D01*
X6313982Y5647690D01*
X6319012Y5652770D01*
X6323431Y5658358D01*
X6327140Y5664504D01*
X6330086Y5671007D01*
X6331254Y5674410D01*
X6332931Y5681319D01*
X6333794Y5688431D01*
X6334048Y5743244D01*
X6333947Y5758332D01*
X6333134Y5765190D01*
X6331458Y5771946D01*
X6330340Y5775248D01*
X6327444Y5781548D01*
X6323888Y5787491D01*
X6319570Y5792978D01*
X6314694Y5797905D01*
X6309207Y5802172D01*
X6303264Y5805779D01*
X6296914Y5808624D01*
X6290310Y5810707D01*
X6283452Y5811926D01*
X6276543Y5812332D01*
G37*
G36*
X6002020Y6282385D02*
G01*
X6002020Y6152489D01*
X6031992Y6152489D01*
X6031992Y6282385D01*
G37*
G36*
X5951982Y6282385D02*
G01*
X5951982Y6152489D01*
X5981954Y6152489D01*
X5981954Y6282385D01*
G37*
G36*
X5901994Y6282385D02*
G01*
X5901994Y6152489D01*
X5932017Y6152489D01*
X5932017Y6282385D01*
G37*
G36*
X5852007Y6282385D02*
G01*
X5852007Y6152489D01*
X5881979Y6152489D01*
X5881979Y6282385D01*
G37*
G36*
X5802020Y6282385D02*
G01*
X5802020Y6152489D01*
X5831992Y6152489D01*
X5831992Y6282385D01*
G37*
G36*
X5751982Y6282385D02*
G01*
X5751982Y6152489D01*
X5782005Y6152489D01*
X5782005Y6282385D01*
G37*
G36*
X5701995Y6282385D02*
G01*
X5701995Y6152489D01*
X5732018Y6152489D01*
X5732018Y6282385D01*
G37*
G36*
X5652008Y6282385D02*
G01*
X5652008Y6152489D01*
X5681980Y6152489D01*
X5681980Y6282385D01*
G37*
G36*
X6056985Y6282385D02*
G01*
X6056985Y6152388D01*
X6107023Y6152388D01*
X6107023Y6282385D01*
G37*
G36*
X6136995Y6282385D02*
G01*
X6136995Y6152388D01*
X6186982Y6152388D01*
X6186982Y6282385D01*
G37*
G36*
X5496966Y6282385D02*
G01*
X5496966Y6152388D01*
X5547004Y6152388D01*
X5547004Y6282385D01*
G37*
G36*
X5576976Y6282385D02*
G01*
X5576976Y6152388D01*
X5627014Y6152388D01*
X5627014Y6282385D01*
G37*
D10*
G01*
X4107916Y8042147D03*
G01*
X4107891Y7842148D03*
G01*
X4107916Y7642148D03*
G01*
X4107840Y7442149D03*
G01*
X4107916Y7242149D03*
G01*
X4107992Y7042150D03*
G01*
X4107865Y6842175D03*
G01*
X4107713Y6642150D03*
D11*
G01*
X3852519Y6512077D03*
G01*
X3652520Y6512153D03*
G01*
X3452596Y6512153D03*
G01*
X3252495Y6512153D03*
G01*
X3052648Y6512204D03*
G01*
X2852851Y6512052D03*
D10*
G01*
X2597759Y6642150D03*
G01*
X2597683Y6842175D03*
G01*
X2597683Y7042150D03*
G01*
X2597683Y7242149D03*
G01*
X2597683Y7442149D03*
G01*
X2597683Y7642148D03*
G01*
X2597683Y7842148D03*
G01*
X2597683Y8042147D03*
D12*
G01*
X4382008Y8584006D03*
G01*
X4761991Y8584006D03*
G01*
X4382008Y8433993D03*
G01*
X4761991Y8433993D03*
D13*
G01*
X6640829Y8331200D03*
G01*
X6640829Y8458200D03*
G01*
X6640829Y8585200D03*
G01*
X6640829Y8712200D03*
G01*
X6059170Y8712200D03*
G01*
X6059170Y8585200D03*
G01*
X6059170Y8458200D03*
G01*
X6059170Y8331200D03*
D14*
G01*
X6350000Y8521700D03*
D15*
G01*
X7362012Y6083300D03*
G01*
X7112000Y6083300D03*
G01*
X6861987Y6083300D03*
D16*
G01*
X2421534Y5707443D03*
G01*
X3166473Y5707443D03*
D17*
G01*
X2981452Y6027343D03*
G01*
X2856458Y6027343D03*
G01*
X2731439Y6027343D03*
G01*
X2606446Y6027343D03*
D18*
G01*
X5071211Y8763000D03*
G01*
X5241213Y8763000D03*
G01*
X5609488Y8763000D03*
G01*
X5439486Y8763000D03*
D19*
G01*
X6305397Y6705600D03*
G01*
X6445402Y6705600D03*
D20*
G01*
X6616090Y6902195D03*
G01*
X6616090Y6807200D03*
G01*
X6616090Y6712204D03*
G01*
X6845909Y6712204D03*
G01*
X6845909Y6807200D03*
G01*
X6845909Y6902195D03*
D21*
G01*
X6776897Y6362700D03*
G01*
X7116902Y6362700D03*
D22*
G01*
X7215200Y6698995D03*
G01*
X7215200Y6509004D03*
G01*
X7415199Y6604000D03*
D23*
G01*
X4572000Y6096000D03*
G01*
X6096000Y6718300D03*
D24*
G01*
X7797800Y7410297D03*
G01*
X7797800Y7550302D03*
G01*
X7200900Y7486497D03*
G01*
X7200900Y7626502D03*
D25*
G01*
X4801800Y7226749D03*
G01*
X4851800Y7226749D03*
G01*
X4901799Y7226749D03*
G01*
X4951799Y7226749D03*
D26*
G01*
X4991050Y7316000D03*
G01*
X4991050Y7366000D03*
G01*
X4991050Y7415999D03*
D27*
G01*
X4951806Y7505242D03*
G01*
X4901793Y7505242D03*
G01*
X4851806Y7505242D03*
G01*
X4801793Y7505242D03*
D26*
G01*
X4762549Y7415999D03*
G01*
X4762549Y7366000D03*
G01*
X4762549Y7316000D03*
D19*
G01*
X5543702Y6451600D03*
G01*
X5403697Y6451600D03*
G01*
X2381402Y6807200D03*
G01*
X2241397Y6807200D03*
D24*
G01*
X2184400Y8604402D03*
G01*
X2184400Y8464397D03*
D28*
G01*
X7606309Y7856016D03*
G01*
X7481315Y7856016D03*
D29*
G01*
X7226300Y8145983D03*
G01*
X7861300Y8145983D03*
D30*
G01*
X5650001Y8095995D03*
G01*
X5715000Y8095995D03*
G01*
X5779998Y8095995D03*
G01*
X5779998Y7906004D03*
G01*
X5715000Y7906004D03*
G01*
X5650001Y7906004D03*
D31*
G01*
X6870700Y7137400D03*
G01*
X6870700Y7232395D03*
G01*
X6870700Y7327392D03*
G01*
X6600723Y7327392D03*
G01*
X6600723Y7137400D03*
G01*
X6600723Y7232395D03*
D32*
G01*
X7388377Y7461504D03*
G01*
X7388377Y7651495D03*
G01*
X7648422Y7651495D03*
G01*
X7648422Y7556500D03*
G01*
X7648422Y7461504D03*
D33*
G01*
X6286500Y7663179D03*
G01*
X6159500Y7663179D03*
G01*
X6032500Y7663179D03*
G01*
X5905500Y7663179D03*
G01*
X5778500Y7663179D03*
G01*
X5651500Y7663179D03*
G01*
X5524500Y7663179D03*
G01*
X5397500Y7663179D03*
G01*
X6286500Y7068820D03*
G01*
X6159500Y7068820D03*
G01*
X6032500Y7068820D03*
G01*
X5905500Y7068820D03*
G01*
X5778500Y7068820D03*
G01*
X5651500Y7068820D03*
G01*
X5524500Y7068820D03*
G01*
X5397500Y7068820D03*
D24*
G01*
X5422900Y7867497D03*
G01*
X5422900Y8007502D03*
M02*
