G04 Layer: BottomLayer*
G04 EasyEDA v6.5.22, 2023-01-18 22:00:42*
G04 8e8bbbff4294455ebee03c083efee197,a9f00e695b414744abbaf3eb758947ea,10*
G04 Gerber Generator version 0.2*
G04 Scale: 100 percent, Rotated: No, Reflected: No *
G04 Dimensions in millimeters *
G04 leading zeros omitted , absolute positions ,4 integer and 5 decimal *
%FSLAX45Y45*%
%MOMM*%

%ADD10C,0.4000*%
%ADD11C,0.3000*%
%ADD12C,0.5000*%
%ADD13C,1.5000*%
%ADD14C,1.6764*%
%ADD15O,1.1999976X1.7999964*%
%ADD16O,1.1999976X1.9999959999999999*%
%ADD17C,0.6100*%
%ADD18C,0.6096*%
%ADD19C,0.0120*%

%LPD*%
G36*
X2068068Y5613908D02*
G01*
X2064156Y5614670D01*
X2060905Y5616905D01*
X2058670Y5620156D01*
X2057907Y5624068D01*
X2057907Y8853932D01*
X2058670Y8857843D01*
X2060905Y8861094D01*
X2064156Y8863330D01*
X2068068Y8864092D01*
X2529840Y8864092D01*
X2533751Y8863330D01*
X2537002Y8861094D01*
X2539238Y8857843D01*
X2540000Y8853932D01*
X2540000Y8223300D01*
X2539238Y8219389D01*
X2537002Y8216087D01*
X2533751Y8213902D01*
X2529840Y8213140D01*
X2525928Y8213902D01*
X2522677Y8216087D01*
X2423769Y8314994D01*
X2421585Y8318296D01*
X2420823Y8322157D01*
X2420823Y8668258D01*
X2422296Y8679992D01*
X2423160Y8682990D01*
X2427884Y8692946D01*
X2430424Y8702395D01*
X2431288Y8712200D01*
X2430424Y8722004D01*
X2427884Y8731504D01*
X2423718Y8740394D01*
X2418080Y8748420D01*
X2411120Y8755380D01*
X2403094Y8761018D01*
X2394204Y8765184D01*
X2384704Y8767724D01*
X2374900Y8768588D01*
X2365095Y8767724D01*
X2355596Y8765184D01*
X2346706Y8761018D01*
X2338679Y8755380D01*
X2331720Y8748420D01*
X2326081Y8740394D01*
X2321915Y8731504D01*
X2319375Y8722004D01*
X2318512Y8712200D01*
X2319375Y8702395D01*
X2321915Y8692946D01*
X2326640Y8682990D01*
X2327503Y8679992D01*
X2328976Y8668258D01*
X2329027Y8297164D01*
X2330246Y8288426D01*
X2332939Y8280400D01*
X2337054Y8273034D01*
X2342794Y8266125D01*
X2921050Y7687919D01*
X2928112Y7682585D01*
X2935681Y7678826D01*
X2943809Y7676540D01*
X2952699Y7675676D01*
X3702608Y7675676D01*
X3714343Y7674203D01*
X3717290Y7673340D01*
X3727246Y7668666D01*
X3731717Y7667447D01*
X3735273Y7665720D01*
X3745077Y7658100D01*
X4164431Y7238746D01*
X4166615Y7235444D01*
X4167378Y7231583D01*
X4166615Y7227671D01*
X4164431Y7224369D01*
X4161129Y7222185D01*
X4157218Y7221423D01*
X3244291Y7221423D01*
X3232556Y7222896D01*
X3229610Y7223759D01*
X3219653Y7228433D01*
X3210204Y7230973D01*
X3200400Y7231837D01*
X3190595Y7230973D01*
X3181146Y7228433D01*
X3172206Y7224318D01*
X3164179Y7218680D01*
X3157220Y7211720D01*
X3151581Y7203694D01*
X3147466Y7194753D01*
X3144926Y7185304D01*
X3144062Y7175500D01*
X3144926Y7165695D01*
X3147466Y7156246D01*
X3151581Y7147306D01*
X3157220Y7139279D01*
X3164179Y7132320D01*
X3172206Y7126681D01*
X3181146Y7122566D01*
X3190595Y7120026D01*
X3200400Y7119162D01*
X3210204Y7120026D01*
X3219653Y7122566D01*
X3229610Y7127240D01*
X3232556Y7128103D01*
X3244291Y7129576D01*
X4515408Y7129576D01*
X4527143Y7128103D01*
X4530090Y7127240D01*
X4540046Y7122566D01*
X4549495Y7120026D01*
X4559300Y7119162D01*
X4569104Y7120026D01*
X4578553Y7122566D01*
X4587494Y7126681D01*
X4595520Y7132320D01*
X4602480Y7139279D01*
X4608118Y7147306D01*
X4612233Y7156246D01*
X4613452Y7160717D01*
X4615180Y7164273D01*
X4622800Y7174077D01*
X4732680Y7284008D01*
X4738014Y7291070D01*
X4741773Y7298639D01*
X4744059Y7306767D01*
X4744923Y7315657D01*
X4744923Y7461808D01*
X4746396Y7473543D01*
X4747260Y7476490D01*
X4751933Y7486446D01*
X4754473Y7495895D01*
X4755337Y7505700D01*
X4754473Y7515504D01*
X4751933Y7524953D01*
X4747818Y7533894D01*
X4742180Y7541920D01*
X4735220Y7548880D01*
X4727194Y7554518D01*
X4718253Y7558633D01*
X4708804Y7561173D01*
X4699000Y7562037D01*
X4689195Y7561173D01*
X4679746Y7558633D01*
X4670806Y7554518D01*
X4662779Y7548880D01*
X4655820Y7541920D01*
X4650181Y7533894D01*
X4646066Y7524953D01*
X4643526Y7515504D01*
X4642662Y7505700D01*
X4643526Y7495895D01*
X4646066Y7486446D01*
X4650740Y7476490D01*
X4651603Y7473543D01*
X4653076Y7461808D01*
X4653076Y7338415D01*
X4652314Y7334554D01*
X4650130Y7331252D01*
X4557877Y7239000D01*
X4548073Y7231380D01*
X4544517Y7229652D01*
X4540046Y7228433D01*
X4530090Y7223759D01*
X4527143Y7222896D01*
X4515408Y7221423D01*
X4384243Y7221423D01*
X4380331Y7222185D01*
X4377029Y7224369D01*
X4374845Y7227671D01*
X4374083Y7231583D01*
X4374845Y7235444D01*
X4377029Y7238746D01*
X4506264Y7367930D01*
X4509414Y7371384D01*
X4512106Y7374890D01*
X4514494Y7378649D01*
X4516526Y7382611D01*
X4518253Y7386675D01*
X4519574Y7390942D01*
X4520539Y7395260D01*
X4521098Y7399680D01*
X4521301Y7404303D01*
X4521301Y7518501D01*
X4522063Y7522413D01*
X4524298Y7525664D01*
X4742535Y7743901D01*
X4745786Y7746136D01*
X4749698Y7746898D01*
X5752896Y7746898D01*
X5757519Y7747101D01*
X5761939Y7747660D01*
X5766257Y7748625D01*
X5770524Y7749946D01*
X5774588Y7751673D01*
X5778550Y7753705D01*
X5782310Y7756093D01*
X5785815Y7758785D01*
X5789269Y7761935D01*
X5884926Y7857642D01*
X5887770Y7859623D01*
X5896610Y7863840D01*
X5899607Y7864703D01*
X5911342Y7866176D01*
X6286144Y7866176D01*
X6290462Y7865262D01*
X6293967Y7862570D01*
X6295948Y7858658D01*
X6297015Y7854696D01*
X6301181Y7845806D01*
X6306820Y7837779D01*
X6313779Y7830820D01*
X6321806Y7825181D01*
X6330696Y7821015D01*
X6340195Y7818475D01*
X6350000Y7817612D01*
X6359804Y7818475D01*
X6369304Y7821015D01*
X6378194Y7825181D01*
X6386220Y7830820D01*
X6393180Y7837779D01*
X6398818Y7845806D01*
X6402984Y7854696D01*
X6405524Y7864195D01*
X6406388Y7874000D01*
X6405524Y7883804D01*
X6402984Y7893303D01*
X6398818Y7902194D01*
X6393180Y7910220D01*
X6386220Y7917180D01*
X6378194Y7922818D01*
X6369304Y7926984D01*
X6364782Y7928203D01*
X6361226Y7929930D01*
X6351270Y7937601D01*
X6342989Y7945831D01*
X6336030Y7951114D01*
X6328460Y7954873D01*
X6320332Y7957159D01*
X6311442Y7958023D01*
X5911342Y7958023D01*
X5899607Y7959496D01*
X5896610Y7960359D01*
X5886653Y7965084D01*
X5877204Y7967624D01*
X5867400Y7968488D01*
X5857595Y7967624D01*
X5848096Y7965084D01*
X5839206Y7960918D01*
X5831179Y7955280D01*
X5824220Y7948320D01*
X5818581Y7940294D01*
X5814974Y7932521D01*
X5812942Y7929625D01*
X5734964Y7851698D01*
X5731713Y7849463D01*
X5727801Y7848701D01*
X4724603Y7848701D01*
X4719980Y7848498D01*
X4715560Y7847939D01*
X4711242Y7846974D01*
X4706975Y7845653D01*
X4702911Y7843926D01*
X4698949Y7841894D01*
X4695190Y7839506D01*
X4691684Y7836814D01*
X4688230Y7833664D01*
X4434535Y7579969D01*
X4431385Y7576515D01*
X4428693Y7573009D01*
X4426305Y7569250D01*
X4424273Y7565288D01*
X4422546Y7561224D01*
X4421225Y7556957D01*
X4420260Y7552639D01*
X4419701Y7548219D01*
X4419498Y7543596D01*
X4419498Y7429398D01*
X4418736Y7425486D01*
X4416501Y7422235D01*
X4300423Y7306106D01*
X4297527Y7304074D01*
X4289806Y7300518D01*
X4281779Y7294880D01*
X4274820Y7287920D01*
X4269536Y7280351D01*
X4266285Y7277404D01*
X4262120Y7276033D01*
X4257751Y7276642D01*
X4254042Y7278979D01*
X3810000Y7723022D01*
X3802379Y7732826D01*
X3800652Y7736382D01*
X3799433Y7740853D01*
X3795318Y7749794D01*
X3789679Y7757820D01*
X3782720Y7764780D01*
X3774694Y7770418D01*
X3765753Y7774533D01*
X3756304Y7777073D01*
X3746500Y7777937D01*
X3736695Y7777073D01*
X3727246Y7774533D01*
X3717290Y7769859D01*
X3714343Y7768996D01*
X3702608Y7767523D01*
X2975457Y7767523D01*
X2971596Y7768285D01*
X2968294Y7770469D01*
X2564587Y8174177D01*
X2562402Y8177428D01*
X2561640Y8181340D01*
X2562402Y8185251D01*
X2564587Y8188502D01*
X2567889Y8190738D01*
X2571800Y8191500D01*
X4151884Y8191500D01*
X4152900Y8192516D01*
X4152900Y8853932D01*
X4153662Y8857843D01*
X4155897Y8861094D01*
X4159148Y8863330D01*
X4163060Y8864092D01*
X6005068Y8864092D01*
X6009386Y8863126D01*
X6012840Y8860485D01*
X6014872Y8856573D01*
X6015075Y8852154D01*
X6013399Y8848090D01*
X6009081Y8841994D01*
X6004966Y8833053D01*
X6002426Y8823604D01*
X6001562Y8813800D01*
X6002426Y8803995D01*
X6004966Y8794546D01*
X6009081Y8785606D01*
X6014720Y8777579D01*
X6021679Y8770620D01*
X6029706Y8764981D01*
X6038646Y8760866D01*
X6043117Y8759647D01*
X6046673Y8757920D01*
X6056477Y8750300D01*
X6598208Y8208619D01*
X6605270Y8203285D01*
X6612839Y8199526D01*
X6620967Y8197240D01*
X6629857Y8196376D01*
X7364730Y8196376D01*
X7368794Y8195564D01*
X7372197Y8193125D01*
X7374331Y8189569D01*
X7374890Y8185454D01*
X7373721Y8181492D01*
X7371080Y8178292D01*
X7367828Y8175701D01*
X7358024Y8165592D01*
X7349642Y8154314D01*
X7342733Y8142071D01*
X7337450Y8129066D01*
X7333894Y8115401D01*
X7332319Y8103717D01*
X7322921Y8043519D01*
X7321956Y8040522D01*
X7320076Y8037931D01*
X7153859Y7871663D01*
X7148575Y7864602D01*
X7144816Y7857032D01*
X7142480Y7848904D01*
X7141667Y7840014D01*
X7141667Y7482687D01*
X7140905Y7478826D01*
X7138670Y7475524D01*
X6815937Y7152741D01*
X6812635Y7150557D01*
X6808724Y7149795D01*
X6746494Y7149744D01*
X6737756Y7148525D01*
X6729730Y7145832D01*
X6722313Y7141667D01*
X6707073Y7129780D01*
X6703517Y7128052D01*
X6699046Y7126833D01*
X6690106Y7122718D01*
X6682079Y7117080D01*
X6675120Y7110120D01*
X6669481Y7102094D01*
X6665366Y7093153D01*
X6662826Y7083704D01*
X6661962Y7073900D01*
X6662826Y7064095D01*
X6665366Y7054646D01*
X6669481Y7045706D01*
X6675120Y7037679D01*
X6682079Y7030720D01*
X6690106Y7025081D01*
X6699046Y7020966D01*
X6708495Y7018426D01*
X6718300Y7017562D01*
X6728104Y7018426D01*
X6737553Y7020966D01*
X6746494Y7025081D01*
X6754520Y7030720D01*
X6761480Y7037679D01*
X6767118Y7045706D01*
X6770065Y7052106D01*
X6772300Y7055205D01*
X6775551Y7057237D01*
X6779259Y7057948D01*
X6833717Y7057999D01*
X6842455Y7059218D01*
X6850481Y7061911D01*
X6857898Y7066025D01*
X6864756Y7071766D01*
X7221270Y7428280D01*
X7226553Y7435342D01*
X7230313Y7442911D01*
X7232650Y7451039D01*
X7233462Y7459929D01*
X7233462Y7817256D01*
X7234224Y7821117D01*
X7236459Y7824419D01*
X7384999Y7973009D01*
X7387590Y7974888D01*
X7390638Y7975853D01*
X7451242Y7985252D01*
X7459014Y7986166D01*
X7472781Y7989316D01*
X7485989Y7994142D01*
X7498435Y8000644D01*
X7509967Y8008721D01*
X7520381Y8018170D01*
X7529474Y8028838D01*
X7532776Y8033867D01*
X7535468Y8036661D01*
X7539024Y8038236D01*
X7542885Y8038388D01*
X7546543Y8037017D01*
X7549438Y8034426D01*
X7557668Y8023352D01*
X7567472Y8013242D01*
X7578445Y8004505D01*
X7590485Y7997190D01*
X7603337Y7991500D01*
X7616799Y7987538D01*
X7630668Y7985252D01*
X7644739Y7984845D01*
X7658709Y7986166D01*
X7672425Y7989316D01*
X7685633Y7994142D01*
X7698079Y8000644D01*
X7709611Y8008721D01*
X7720025Y8018170D01*
X7729118Y8028838D01*
X7736789Y8040624D01*
X7742885Y8053324D01*
X7747304Y8066633D01*
X7749997Y8080451D01*
X7750911Y8094472D01*
X7749997Y8108492D01*
X7747304Y8122310D01*
X7742885Y8135620D01*
X7736789Y8148320D01*
X7729118Y8160105D01*
X7720025Y8170773D01*
X7709611Y8180222D01*
X7698079Y8188299D01*
X7685633Y8194802D01*
X7672425Y8199628D01*
X7658658Y8202777D01*
X7650429Y8203742D01*
X7590129Y8213090D01*
X7587081Y8214106D01*
X7584490Y8215985D01*
X7524445Y8275980D01*
X7517384Y8281314D01*
X7509814Y8285073D01*
X7501686Y8287359D01*
X7492796Y8288223D01*
X6652615Y8288223D01*
X6648754Y8288985D01*
X6645452Y8291169D01*
X6121400Y8815222D01*
X6113780Y8825026D01*
X6112052Y8828582D01*
X6110833Y8833053D01*
X6106718Y8841994D01*
X6102400Y8848090D01*
X6100724Y8852154D01*
X6100927Y8856573D01*
X6102959Y8860485D01*
X6106414Y8863126D01*
X6110732Y8864092D01*
X7088631Y8864092D01*
X7092543Y8863330D01*
X7095794Y8861094D01*
X7098030Y8857843D01*
X7098792Y8853932D01*
X7098792Y8369909D01*
X7099604Y8363407D01*
X7101687Y8357870D01*
X7105243Y8352739D01*
X7108240Y8349691D01*
X7111847Y8347049D01*
X7117384Y8344560D01*
X7124852Y8343392D01*
X7952231Y8343392D01*
X7956143Y8342630D01*
X7959394Y8340394D01*
X7961630Y8337143D01*
X7962392Y8333231D01*
X7962392Y5624068D01*
X7961630Y5620156D01*
X7959394Y5616905D01*
X7956143Y5614670D01*
X7952231Y5613908D01*
X6343497Y5613908D01*
X6339586Y5614670D01*
X6336334Y5616905D01*
X6334099Y5620156D01*
X6333337Y5624068D01*
X6334099Y5627979D01*
X6336334Y5631230D01*
X6339382Y5634329D01*
X6346748Y5644134D01*
X6352641Y5654903D01*
X6356908Y5666384D01*
X6359499Y5678373D01*
X6360414Y5690920D01*
X6360414Y5750204D01*
X6359499Y5762802D01*
X6356908Y5774791D01*
X6352641Y5786272D01*
X6346748Y5796991D01*
X6339382Y5806795D01*
X6330746Y5815482D01*
X6320942Y5822848D01*
X6310172Y5828690D01*
X6298692Y5833008D01*
X6286703Y5835599D01*
X6274511Y5836462D01*
X6262268Y5835599D01*
X6250279Y5833008D01*
X6238798Y5828690D01*
X6228080Y5822848D01*
X6218275Y5815482D01*
X6209588Y5806795D01*
X6202222Y5796991D01*
X6196380Y5786272D01*
X6192113Y5774791D01*
X6189472Y5762802D01*
X6188608Y5750204D01*
X6188608Y5690920D01*
X6189472Y5678373D01*
X6192113Y5666384D01*
X6196380Y5654903D01*
X6202222Y5644134D01*
X6209588Y5634329D01*
X6212687Y5631230D01*
X6214872Y5627979D01*
X6215634Y5624068D01*
X6214872Y5620156D01*
X6212687Y5616905D01*
X6209385Y5614670D01*
X6205474Y5613908D01*
X5478526Y5613908D01*
X5474614Y5614670D01*
X5471312Y5616905D01*
X5469128Y5620156D01*
X5468366Y5624068D01*
X5469128Y5627979D01*
X5471312Y5631230D01*
X5474411Y5634329D01*
X5481777Y5644134D01*
X5487619Y5654903D01*
X5491886Y5666384D01*
X5494528Y5678373D01*
X5495391Y5690920D01*
X5495391Y5750204D01*
X5494528Y5762802D01*
X5491886Y5774791D01*
X5487619Y5786272D01*
X5481777Y5796991D01*
X5474411Y5806795D01*
X5465724Y5815482D01*
X5455920Y5822848D01*
X5445201Y5828690D01*
X5433720Y5833008D01*
X5421731Y5835599D01*
X5409488Y5836462D01*
X5397296Y5835599D01*
X5385308Y5833008D01*
X5373827Y5828690D01*
X5363057Y5822848D01*
X5353253Y5815482D01*
X5344617Y5806795D01*
X5337251Y5796991D01*
X5331358Y5786272D01*
X5327091Y5774791D01*
X5324500Y5762802D01*
X5323586Y5750204D01*
X5323586Y5690920D01*
X5324500Y5678373D01*
X5327091Y5666384D01*
X5331358Y5654903D01*
X5337251Y5644134D01*
X5344617Y5634329D01*
X5347665Y5631230D01*
X5349900Y5627979D01*
X5350662Y5624068D01*
X5349900Y5620156D01*
X5347665Y5616905D01*
X5344414Y5614670D01*
X5340502Y5613908D01*
G37*

%LPC*%
G36*
X7449058Y5692444D02*
G01*
X7460843Y5692902D01*
X7472476Y5695035D01*
X7483652Y5698845D01*
X7494117Y5704230D01*
X7503718Y5711139D01*
X7512253Y5719318D01*
X7519466Y5728665D01*
X7525258Y5738977D01*
X7529474Y5750001D01*
X7532014Y5761532D01*
X7532878Y5773267D01*
X7532014Y5785053D01*
X7529474Y5796584D01*
X7525258Y5807608D01*
X7519466Y5817920D01*
X7512253Y5827268D01*
X7503718Y5835446D01*
X7494117Y5842355D01*
X7483652Y5847740D01*
X7472476Y5851550D01*
X7460843Y5853684D01*
X7449058Y5854141D01*
X7437323Y5852820D01*
X7425893Y5849823D01*
X7415022Y5845200D01*
X7404963Y5839053D01*
X7395870Y5831535D01*
X7387996Y5822746D01*
X7381494Y5812891D01*
X7376464Y5802172D01*
X7373061Y5790895D01*
X7371334Y5779211D01*
X7371334Y5767374D01*
X7373061Y5755690D01*
X7376464Y5744413D01*
X7381494Y5733694D01*
X7387996Y5723839D01*
X7395870Y5715050D01*
X7404963Y5707532D01*
X7415022Y5701385D01*
X7425893Y5696762D01*
X7437323Y5693765D01*
G37*
G36*
X6769049Y5692444D02*
G01*
X6780834Y5692902D01*
X6792468Y5695035D01*
X6803644Y5698845D01*
X6814108Y5704230D01*
X6823709Y5711139D01*
X6832244Y5719318D01*
X6839458Y5728665D01*
X6845249Y5738977D01*
X6849465Y5750001D01*
X6852005Y5761532D01*
X6852869Y5773267D01*
X6852005Y5785053D01*
X6849465Y5796584D01*
X6845249Y5807608D01*
X6839458Y5817920D01*
X6832244Y5827268D01*
X6823709Y5835446D01*
X6814108Y5842355D01*
X6803644Y5847740D01*
X6792468Y5851550D01*
X6780834Y5853684D01*
X6769049Y5854141D01*
X6757314Y5852820D01*
X6745884Y5849823D01*
X6735013Y5845200D01*
X6724954Y5839053D01*
X6715861Y5831535D01*
X6707987Y5822746D01*
X6701485Y5812891D01*
X6696456Y5802172D01*
X6693052Y5790895D01*
X6691325Y5779211D01*
X6691325Y5767374D01*
X6693052Y5755690D01*
X6696456Y5744413D01*
X6701485Y5733694D01*
X6707987Y5723839D01*
X6715861Y5715050D01*
X6724954Y5707532D01*
X6735013Y5701385D01*
X6745884Y5696762D01*
X6757314Y5693765D01*
G37*
G36*
X4009847Y5855462D02*
G01*
X4023309Y5855919D01*
X4036568Y5858154D01*
X4049471Y5862167D01*
X4061663Y5867806D01*
X4073093Y5875121D01*
X4077512Y5878728D01*
X4113377Y5903468D01*
X4117492Y5905144D01*
X4121962Y5904890D01*
X4123334Y5904534D01*
X4132224Y5903671D01*
X7030872Y5903722D01*
X7039609Y5904941D01*
X7047636Y5907633D01*
X7055002Y5911748D01*
X7061911Y5917488D01*
X7367422Y6223000D01*
X7377226Y6230620D01*
X7380782Y6232347D01*
X7385253Y6233566D01*
X7394194Y6237681D01*
X7402220Y6243320D01*
X7409180Y6250279D01*
X7414818Y6258306D01*
X7418933Y6267246D01*
X7421473Y6276695D01*
X7422337Y6286500D01*
X7421473Y6296304D01*
X7418933Y6305753D01*
X7414818Y6314694D01*
X7409180Y6322720D01*
X7402220Y6329680D01*
X7394194Y6335318D01*
X7385253Y6339433D01*
X7375804Y6341973D01*
X7366000Y6342837D01*
X7356195Y6341973D01*
X7346746Y6339433D01*
X7337806Y6335318D01*
X7329779Y6329680D01*
X7322820Y6322720D01*
X7317181Y6314694D01*
X7313066Y6305753D01*
X7311847Y6301282D01*
X7310120Y6297726D01*
X7302500Y6287922D01*
X7013041Y5998464D01*
X7009739Y5996279D01*
X7005878Y5995517D01*
X6289040Y5995517D01*
X6284874Y5996381D01*
X6281470Y5998870D01*
X6279337Y6002528D01*
X6278930Y6006693D01*
X6280200Y6010706D01*
X6282994Y6013856D01*
X6286855Y6015583D01*
X6298692Y6018174D01*
X6310172Y6022441D01*
X6320942Y6028334D01*
X6330746Y6035649D01*
X6339382Y6044336D01*
X6346748Y6054140D01*
X6352641Y6064910D01*
X6356908Y6076391D01*
X6359499Y6088329D01*
X6360414Y6100927D01*
X6360414Y6180226D01*
X6359499Y6192774D01*
X6356908Y6204762D01*
X6352641Y6216243D01*
X6346748Y6227013D01*
X6339382Y6236817D01*
X6330746Y6245453D01*
X6320942Y6252819D01*
X6310172Y6258712D01*
X6298692Y6262979D01*
X6286703Y6265570D01*
X6274511Y6266434D01*
X6262268Y6265570D01*
X6250279Y6262979D01*
X6238798Y6258712D01*
X6228080Y6252819D01*
X6218275Y6245453D01*
X6209588Y6236817D01*
X6202222Y6227013D01*
X6196380Y6216243D01*
X6192113Y6204762D01*
X6189472Y6192774D01*
X6188608Y6180226D01*
X6188608Y6147308D01*
X6187592Y6142939D01*
X6184798Y6139434D01*
X6180734Y6137452D01*
X6176264Y6137402D01*
X6172200Y6139332D01*
X6166662Y6143599D01*
X6157468Y6148578D01*
X6147562Y6151981D01*
X6137249Y6153708D01*
X6126734Y6153708D01*
X6116421Y6151981D01*
X6106515Y6148578D01*
X6097320Y6143599D01*
X6089091Y6137198D01*
X6081979Y6129477D01*
X6076238Y6120739D01*
X6072073Y6111138D01*
X6069482Y6100978D01*
X6068618Y6090564D01*
X6069482Y6080150D01*
X6072073Y6069990D01*
X6076238Y6060389D01*
X6081979Y6051651D01*
X6089091Y6043930D01*
X6097320Y6037529D01*
X6106515Y6032550D01*
X6116421Y6029147D01*
X6126734Y6027420D01*
X6137249Y6027420D01*
X6147562Y6029147D01*
X6157468Y6032550D01*
X6166662Y6037529D01*
X6174892Y6043930D01*
X6182004Y6051651D01*
X6184493Y6055461D01*
X6187440Y6058408D01*
X6191300Y6059881D01*
X6195466Y6059728D01*
X6199225Y6057900D01*
X6209588Y6044336D01*
X6218275Y6035649D01*
X6228080Y6028334D01*
X6238798Y6022441D01*
X6250279Y6018174D01*
X6262116Y6015583D01*
X6265976Y6013856D01*
X6268770Y6010706D01*
X6270091Y6006693D01*
X6269634Y6002528D01*
X6267500Y5998870D01*
X6264097Y5996381D01*
X6259982Y5995517D01*
X5424017Y5995517D01*
X5419902Y5996381D01*
X5416499Y5998870D01*
X5414365Y6002528D01*
X5413908Y6006693D01*
X5415229Y6010706D01*
X5418023Y6013856D01*
X5421884Y6015583D01*
X5433720Y6018174D01*
X5445201Y6022441D01*
X5455920Y6028334D01*
X5465724Y6035649D01*
X5474411Y6044336D01*
X5482082Y6054750D01*
X5484774Y6057900D01*
X5488533Y6059728D01*
X5492699Y6059881D01*
X5496560Y6058408D01*
X5499506Y6055461D01*
X5501995Y6051651D01*
X5509107Y6043930D01*
X5517337Y6037529D01*
X5526532Y6032550D01*
X5536438Y6029147D01*
X5546750Y6027420D01*
X5557266Y6027420D01*
X5567578Y6029147D01*
X5577484Y6032550D01*
X5586679Y6037529D01*
X5594908Y6043930D01*
X5602020Y6051651D01*
X5607761Y6060389D01*
X5611926Y6069990D01*
X5614517Y6080150D01*
X5615381Y6090564D01*
X5614517Y6100978D01*
X5611926Y6111138D01*
X5607761Y6120739D01*
X5602020Y6129477D01*
X5594908Y6137198D01*
X5586679Y6143599D01*
X5577484Y6148578D01*
X5567578Y6151981D01*
X5557266Y6153708D01*
X5546750Y6153708D01*
X5536438Y6151981D01*
X5526532Y6148578D01*
X5517337Y6143599D01*
X5511800Y6139332D01*
X5507736Y6137402D01*
X5503265Y6137452D01*
X5499201Y6139434D01*
X5496407Y6142939D01*
X5495391Y6147308D01*
X5495391Y6180226D01*
X5494528Y6192774D01*
X5491886Y6204762D01*
X5487619Y6216243D01*
X5481777Y6227013D01*
X5474411Y6236817D01*
X5465724Y6245453D01*
X5455920Y6252819D01*
X5445201Y6258712D01*
X5433720Y6262979D01*
X5421731Y6265570D01*
X5409488Y6266434D01*
X5397296Y6265570D01*
X5385308Y6262979D01*
X5373827Y6258712D01*
X5363057Y6252819D01*
X5353253Y6245453D01*
X5344617Y6236817D01*
X5337251Y6227013D01*
X5331358Y6216243D01*
X5327091Y6204762D01*
X5324500Y6192774D01*
X5323586Y6180226D01*
X5323586Y6100927D01*
X5324500Y6088329D01*
X5327091Y6076391D01*
X5331358Y6064910D01*
X5337251Y6054140D01*
X5344617Y6044336D01*
X5353253Y6035649D01*
X5363057Y6028334D01*
X5373827Y6022441D01*
X5385308Y6018174D01*
X5397144Y6015583D01*
X5401005Y6013856D01*
X5403799Y6010706D01*
X5405069Y6006693D01*
X5404662Y6002528D01*
X5402529Y5998870D01*
X5399125Y5996381D01*
X5395010Y5995517D01*
X4151172Y5995517D01*
X4146600Y5996584D01*
X4141622Y5999073D01*
X4133443Y6001359D01*
X4125823Y6002070D01*
X4123334Y6002680D01*
X4120997Y6003848D01*
X4077512Y6033871D01*
X4073093Y6037478D01*
X4061663Y6044793D01*
X4049471Y6050432D01*
X4036568Y6054445D01*
X4023309Y6056680D01*
X4009847Y6057138D01*
X3996436Y6055766D01*
X3983329Y6052667D01*
X3970731Y6047790D01*
X3958945Y6041339D01*
X3947312Y6032703D01*
X3904894Y5999378D01*
X3901948Y5997752D01*
X3898595Y5997194D01*
X2929432Y5997194D01*
X2925572Y5997956D01*
X2922270Y6000191D01*
X2595270Y6327140D01*
X2593035Y6330594D01*
X2592324Y6334658D01*
X2593289Y6338620D01*
X2595727Y6341922D01*
X2599283Y6344005D01*
X2613304Y6345326D01*
X2622753Y6347866D01*
X2631694Y6351981D01*
X2639720Y6357620D01*
X2646680Y6364579D01*
X2652318Y6372606D01*
X2656433Y6381546D01*
X2658973Y6390995D01*
X2659837Y6400800D01*
X2658973Y6410604D01*
X2656433Y6420053D01*
X2651760Y6430010D01*
X2650896Y6432956D01*
X2649423Y6444691D01*
X2649423Y6453784D01*
X2650185Y6457645D01*
X2652369Y6460947D01*
X2666542Y6475120D01*
X2668574Y6476695D01*
X2671013Y6477711D01*
X2723286Y6492189D01*
X2728417Y6493154D01*
X2741371Y6497167D01*
X2753563Y6502806D01*
X2764942Y6510070D01*
X2775254Y6518757D01*
X2784297Y6528765D01*
X2791917Y6539890D01*
X2797962Y6551930D01*
X2802432Y6564680D01*
X2804210Y6573113D01*
X2818688Y6625386D01*
X2819704Y6627825D01*
X2821279Y6629857D01*
X2884322Y6692900D01*
X2894126Y6700520D01*
X2897682Y6702247D01*
X2902153Y6703466D01*
X2911094Y6707581D01*
X2919120Y6713220D01*
X2926080Y6720179D01*
X2931718Y6728206D01*
X2935833Y6737146D01*
X2938373Y6746595D01*
X2939237Y6756400D01*
X2938373Y6766204D01*
X2935833Y6775653D01*
X2931718Y6784594D01*
X2926080Y6792620D01*
X2919120Y6799580D01*
X2911094Y6805218D01*
X2902153Y6809333D01*
X2892704Y6811873D01*
X2882900Y6812737D01*
X2873095Y6811873D01*
X2863646Y6809333D01*
X2854706Y6805218D01*
X2846679Y6799580D01*
X2839720Y6792620D01*
X2834081Y6784594D01*
X2829966Y6775653D01*
X2828747Y6771182D01*
X2827020Y6767626D01*
X2819400Y6757822D01*
X2761335Y6699758D01*
X2758490Y6697776D01*
X2755138Y6696811D01*
X2704947Y6692087D01*
X2701747Y6692138D01*
X2688336Y6690766D01*
X2675229Y6687667D01*
X2662631Y6682790D01*
X2650794Y6676339D01*
X2639974Y6668363D01*
X2630271Y6658965D01*
X2621940Y6648399D01*
X2615082Y6636816D01*
X2609799Y6624370D01*
X2606243Y6611416D01*
X2604414Y6598005D01*
X2604312Y6591808D01*
X2599588Y6541262D01*
X2598623Y6537909D01*
X2596642Y6535064D01*
X2569819Y6508191D01*
X2564485Y6501130D01*
X2560726Y6493560D01*
X2558440Y6485432D01*
X2557576Y6476542D01*
X2557576Y6444691D01*
X2556103Y6432956D01*
X2555240Y6430010D01*
X2550566Y6420053D01*
X2548026Y6410604D01*
X2546705Y6396583D01*
X2544622Y6393027D01*
X2541320Y6390589D01*
X2537358Y6389624D01*
X2533294Y6390335D01*
X2529840Y6392570D01*
X2240991Y6681470D01*
X2238756Y6684772D01*
X2237994Y6688632D01*
X2237994Y7419695D01*
X2238654Y7423200D01*
X2242718Y7434325D01*
X2245918Y7439406D01*
X2250033Y7448346D01*
X2252573Y7457795D01*
X2253437Y7467600D01*
X2252573Y7477404D01*
X2250033Y7486853D01*
X2245918Y7495794D01*
X2240280Y7503820D01*
X2233320Y7510780D01*
X2225294Y7516418D01*
X2216353Y7520533D01*
X2206904Y7523073D01*
X2197100Y7523937D01*
X2187295Y7523073D01*
X2177846Y7520533D01*
X2168906Y7516418D01*
X2160879Y7510780D01*
X2153920Y7503820D01*
X2148281Y7495794D01*
X2144166Y7486853D01*
X2141626Y7477404D01*
X2140762Y7467600D01*
X2141626Y7457795D01*
X2144166Y7448346D01*
X2148281Y7439406D01*
X2151481Y7434325D01*
X2155545Y7423200D01*
X2156206Y7419695D01*
X2156206Y6668008D01*
X2157018Y6659524D01*
X2159355Y6651853D01*
X2163114Y6644792D01*
X2168550Y6638239D01*
X2879039Y5927750D01*
X2885592Y5922314D01*
X2892653Y5918555D01*
X2900324Y5916218D01*
X2908808Y5915406D01*
X3898595Y5915406D01*
X3901948Y5914847D01*
X3904894Y5913221D01*
X3947312Y5879896D01*
X3958945Y5871260D01*
X3970731Y5864809D01*
X3983329Y5859932D01*
X3996436Y5856833D01*
G37*
G36*
X2984500Y6319062D02*
G01*
X2994304Y6319926D01*
X3003753Y6322466D01*
X3012694Y6326581D01*
X3020720Y6332220D01*
X3027680Y6339179D01*
X3033318Y6347206D01*
X3037433Y6356146D01*
X3038652Y6360617D01*
X3040380Y6364173D01*
X3048000Y6373977D01*
X3263442Y6589420D01*
X3265474Y6590995D01*
X3267913Y6592011D01*
X3320186Y6606489D01*
X3325317Y6607454D01*
X3338271Y6611467D01*
X3350463Y6617106D01*
X3361842Y6624370D01*
X3372154Y6633057D01*
X3381197Y6643065D01*
X3388817Y6654190D01*
X3394862Y6666230D01*
X3399332Y6678980D01*
X3401110Y6687413D01*
X3415537Y6739585D01*
X3416909Y6742531D01*
X3419195Y6744919D01*
X3427526Y6751320D01*
X3431082Y6753047D01*
X3435553Y6754266D01*
X3444494Y6758381D01*
X3452520Y6764020D01*
X3459479Y6770979D01*
X3465118Y6779006D01*
X3469233Y6787946D01*
X3471773Y6797395D01*
X3472637Y6807200D01*
X3471773Y6817004D01*
X3469233Y6826453D01*
X3465118Y6835394D01*
X3459479Y6843420D01*
X3452520Y6850380D01*
X3444494Y6856018D01*
X3435553Y6860133D01*
X3426104Y6862673D01*
X3416300Y6863537D01*
X3406495Y6862673D01*
X3397046Y6860133D01*
X3388106Y6856018D01*
X3380079Y6850380D01*
X3373120Y6843420D01*
X3367481Y6835394D01*
X3363366Y6826453D01*
X3362147Y6821982D01*
X3360420Y6818426D01*
X3357727Y6814972D01*
X3354578Y6812229D01*
X3350615Y6811009D01*
X3301847Y6806387D01*
X3298647Y6806438D01*
X3285236Y6805066D01*
X3272129Y6801967D01*
X3259531Y6797090D01*
X3247694Y6790639D01*
X3236874Y6782663D01*
X3227171Y6773265D01*
X3218840Y6762699D01*
X3211982Y6751116D01*
X3206699Y6738670D01*
X3203143Y6725716D01*
X3201314Y6712305D01*
X3201212Y6706108D01*
X3196488Y6655562D01*
X3195523Y6652209D01*
X3193542Y6649364D01*
X2983077Y6438900D01*
X2973273Y6431280D01*
X2969717Y6429552D01*
X2965246Y6428333D01*
X2956306Y6424218D01*
X2948279Y6418580D01*
X2941320Y6411620D01*
X2935681Y6403594D01*
X2931566Y6394653D01*
X2929026Y6385204D01*
X2928162Y6375400D01*
X2929026Y6365595D01*
X2931566Y6356146D01*
X2935681Y6347206D01*
X2941320Y6339179D01*
X2948279Y6332220D01*
X2956306Y6326581D01*
X2965246Y6322466D01*
X2974695Y6319926D01*
G37*
G36*
X6845300Y6458762D02*
G01*
X6855104Y6459626D01*
X6864553Y6462166D01*
X6874509Y6466840D01*
X6877456Y6467703D01*
X6889191Y6469176D01*
X7088378Y6469227D01*
X7097115Y6470446D01*
X7105142Y6473139D01*
X7112508Y6477254D01*
X7119416Y6482994D01*
X7176922Y6540500D01*
X7186726Y6548120D01*
X7190282Y6549847D01*
X7194753Y6551066D01*
X7203694Y6555181D01*
X7211720Y6560820D01*
X7218680Y6567779D01*
X7224318Y6575806D01*
X7228433Y6584746D01*
X7230973Y6594195D01*
X7231837Y6604000D01*
X7230973Y6613804D01*
X7228433Y6623253D01*
X7224318Y6632194D01*
X7218680Y6640220D01*
X7211720Y6647180D01*
X7203694Y6652818D01*
X7194753Y6656933D01*
X7185304Y6659473D01*
X7175500Y6660337D01*
X7165695Y6659473D01*
X7156246Y6656933D01*
X7147306Y6652818D01*
X7139279Y6647180D01*
X7132320Y6640220D01*
X7126681Y6632194D01*
X7122566Y6623253D01*
X7121347Y6618782D01*
X7119620Y6615226D01*
X7112000Y6605422D01*
X7070547Y6563969D01*
X7067245Y6561785D01*
X7063384Y6561023D01*
X6889191Y6561023D01*
X6877456Y6562496D01*
X6874509Y6563359D01*
X6864553Y6568033D01*
X6855104Y6570573D01*
X6845300Y6571437D01*
X6835495Y6570573D01*
X6826046Y6568033D01*
X6817106Y6563918D01*
X6809079Y6558280D01*
X6802120Y6551320D01*
X6796481Y6543294D01*
X6792366Y6534353D01*
X6789826Y6524904D01*
X6788962Y6515100D01*
X6789826Y6505295D01*
X6792366Y6495846D01*
X6796481Y6486906D01*
X6802120Y6478879D01*
X6809079Y6471920D01*
X6817106Y6466281D01*
X6826046Y6462166D01*
X6835495Y6459626D01*
G37*
G36*
X5778500Y7169962D02*
G01*
X5788304Y7170826D01*
X5797753Y7173366D01*
X5807710Y7178040D01*
X5810656Y7178903D01*
X5822391Y7180376D01*
X6774078Y7180427D01*
X6782816Y7181646D01*
X6790842Y7184339D01*
X6798208Y7188453D01*
X6805117Y7194194D01*
X7008926Y7398003D01*
X7018731Y7405624D01*
X7022287Y7407351D01*
X7026757Y7408570D01*
X7035698Y7412685D01*
X7043724Y7418324D01*
X7050684Y7425283D01*
X7056323Y7433309D01*
X7060438Y7442250D01*
X7062978Y7451699D01*
X7063841Y7461503D01*
X7062978Y7471308D01*
X7060438Y7480757D01*
X7056323Y7489698D01*
X7050684Y7497724D01*
X7043724Y7504684D01*
X7035698Y7510322D01*
X7026757Y7514437D01*
X7017308Y7516977D01*
X7007504Y7517841D01*
X6997700Y7516977D01*
X6988251Y7514437D01*
X6979310Y7510322D01*
X6971284Y7504684D01*
X6964324Y7497724D01*
X6958685Y7489698D01*
X6954570Y7480757D01*
X6953351Y7476286D01*
X6951624Y7472730D01*
X6944004Y7462926D01*
X6756247Y7275169D01*
X6752945Y7272985D01*
X6749084Y7272223D01*
X5822391Y7272223D01*
X5810656Y7273696D01*
X5807710Y7274559D01*
X5797753Y7279233D01*
X5793282Y7280452D01*
X5789726Y7282180D01*
X5779922Y7289800D01*
X5720791Y7348880D01*
X5713730Y7354214D01*
X5706160Y7357973D01*
X5698032Y7360259D01*
X5689142Y7361123D01*
X5420715Y7361123D01*
X5416854Y7361885D01*
X5413552Y7364069D01*
X5321300Y7456322D01*
X5313680Y7466126D01*
X5311952Y7469682D01*
X5310733Y7474153D01*
X5306618Y7483094D01*
X5300980Y7491120D01*
X5294020Y7498080D01*
X5285994Y7503718D01*
X5277053Y7507833D01*
X5267604Y7510373D01*
X5257800Y7511237D01*
X5247995Y7510373D01*
X5238546Y7507833D01*
X5229606Y7503718D01*
X5221579Y7498080D01*
X5214620Y7491120D01*
X5208981Y7483094D01*
X5204866Y7474153D01*
X5202326Y7464704D01*
X5201462Y7454900D01*
X5202326Y7445095D01*
X5204866Y7435646D01*
X5208981Y7426706D01*
X5214620Y7418679D01*
X5221579Y7411720D01*
X5229606Y7406081D01*
X5238546Y7401966D01*
X5243017Y7400747D01*
X5246573Y7399020D01*
X5256377Y7391400D01*
X5259324Y7388453D01*
X5261508Y7385253D01*
X5262321Y7381544D01*
X5261711Y7377785D01*
X5259730Y7374483D01*
X5256733Y7372197D01*
X5253024Y7371130D01*
X5247995Y7370673D01*
X5238546Y7368133D01*
X5229606Y7364018D01*
X5221579Y7358380D01*
X5214620Y7351420D01*
X5208981Y7343394D01*
X5204866Y7334453D01*
X5202326Y7325004D01*
X5201462Y7315200D01*
X5202326Y7305395D01*
X5204866Y7295946D01*
X5208981Y7287006D01*
X5214620Y7278979D01*
X5221579Y7272020D01*
X5229606Y7266381D01*
X5238546Y7262266D01*
X5247995Y7259726D01*
X5257800Y7258862D01*
X5267604Y7259726D01*
X5277053Y7262266D01*
X5287010Y7266940D01*
X5289956Y7267803D01*
X5301691Y7269276D01*
X5666384Y7269276D01*
X5670245Y7268514D01*
X5673547Y7266330D01*
X5715000Y7224877D01*
X5722620Y7215073D01*
X5724347Y7211517D01*
X5725566Y7207046D01*
X5729681Y7198106D01*
X5735320Y7190079D01*
X5742279Y7183120D01*
X5750306Y7177481D01*
X5759246Y7173366D01*
X5768695Y7170826D01*
G37*
G36*
X3556000Y7985810D02*
G01*
X3565804Y7986674D01*
X3575253Y7989214D01*
X3585210Y7993888D01*
X3588156Y7994751D01*
X3599891Y7996224D01*
X4640326Y7996275D01*
X4649063Y7997494D01*
X4657090Y8000187D01*
X4664456Y8004302D01*
X4671364Y8010042D01*
X4738522Y8077200D01*
X4748326Y8084820D01*
X4751882Y8086547D01*
X4756353Y8087766D01*
X4765294Y8091881D01*
X4773320Y8097520D01*
X4780280Y8104479D01*
X4785918Y8112506D01*
X4790033Y8121446D01*
X4792573Y8130895D01*
X4793437Y8140700D01*
X4792573Y8150504D01*
X4790033Y8159953D01*
X4785918Y8168894D01*
X4780280Y8176920D01*
X4773320Y8183880D01*
X4765294Y8189518D01*
X4756353Y8193633D01*
X4746904Y8196173D01*
X4737100Y8197037D01*
X4727295Y8196173D01*
X4717846Y8193633D01*
X4708906Y8189518D01*
X4700879Y8183880D01*
X4693920Y8176920D01*
X4688281Y8168894D01*
X4684166Y8159953D01*
X4682947Y8155482D01*
X4681220Y8151926D01*
X4673600Y8142122D01*
X4622495Y8091017D01*
X4619193Y8088833D01*
X4615332Y8088071D01*
X3599891Y8088071D01*
X3588156Y8089544D01*
X3585159Y8090408D01*
X3575253Y8095081D01*
X3565804Y8097621D01*
X3556000Y8098485D01*
X3546195Y8097621D01*
X3536746Y8095081D01*
X3527806Y8090966D01*
X3519779Y8085328D01*
X3512820Y8078368D01*
X3507181Y8070342D01*
X3503066Y8061401D01*
X3500526Y8051952D01*
X3499662Y8042148D01*
X3500526Y8032343D01*
X3503066Y8022894D01*
X3507181Y8013953D01*
X3512820Y8005927D01*
X3519779Y7998968D01*
X3527806Y7993329D01*
X3536746Y7989214D01*
X3546195Y7986674D01*
G37*
G36*
X5562600Y8274862D02*
G01*
X5572404Y8275726D01*
X5581853Y8278266D01*
X5590794Y8282381D01*
X5598820Y8288020D01*
X5605780Y8294979D01*
X5611418Y8303006D01*
X5615533Y8311946D01*
X5618073Y8321395D01*
X5618937Y8331200D01*
X5618073Y8341004D01*
X5615533Y8350453D01*
X5611418Y8359394D01*
X5605780Y8367420D01*
X5598820Y8374380D01*
X5590794Y8380018D01*
X5583072Y8383574D01*
X5580176Y8385606D01*
X5378450Y8587333D01*
X5376418Y8590229D01*
X5375503Y8593632D01*
X5375808Y8597188D01*
X5376773Y8600795D01*
X5377637Y8610600D01*
X5376773Y8620404D01*
X5374233Y8629853D01*
X5370118Y8638794D01*
X5364480Y8646820D01*
X5357520Y8653780D01*
X5349494Y8659418D01*
X5340553Y8663533D01*
X5331104Y8666073D01*
X5321300Y8666937D01*
X5311495Y8666073D01*
X5302046Y8663533D01*
X5293106Y8659418D01*
X5285079Y8653780D01*
X5278120Y8646820D01*
X5272481Y8638794D01*
X5268366Y8629853D01*
X5265826Y8620404D01*
X5264962Y8610600D01*
X5265826Y8600795D01*
X5268366Y8591346D01*
X5269433Y8589010D01*
X5270398Y8584692D01*
X5270398Y8572703D01*
X5270601Y8568080D01*
X5271160Y8563660D01*
X5272125Y8559342D01*
X5273446Y8555075D01*
X5275173Y8551011D01*
X5277205Y8547049D01*
X5279593Y8543290D01*
X5282285Y8539784D01*
X5285435Y8536330D01*
X5508193Y8313623D01*
X5510225Y8310727D01*
X5513781Y8303006D01*
X5519420Y8294979D01*
X5526379Y8288020D01*
X5534406Y8282381D01*
X5543346Y8278266D01*
X5552795Y8275726D01*
G37*

%LPD*%
G36*
X6088329Y8815730D02*
G01*
X6055969Y8783370D01*
X6073089Y8770315D01*
X6101384Y8798610D01*
G37*
G36*
X6733489Y7117384D02*
G01*
X6716369Y7104329D01*
X6748729Y7071969D01*
X6761784Y7089089D01*
G37*
G36*
X7145070Y6605930D02*
G01*
X7132015Y6588810D01*
X7160310Y6560515D01*
X7177430Y6573570D01*
G37*
G36*
X6865467Y6537959D02*
G01*
X6865467Y6492240D01*
X6886803Y6495084D01*
X6886803Y6535115D01*
G37*
G36*
X5984849Y6583832D02*
G01*
X5987745Y6562496D01*
X6027724Y6562496D01*
X6030569Y6583832D01*
G37*
G36*
X5288229Y7456830D02*
G01*
X5255869Y7424470D01*
X5272989Y7411415D01*
X5301284Y7439710D01*
G37*
G36*
X3220567Y7198359D02*
G01*
X3220567Y7152640D01*
X3241903Y7155484D01*
X3241903Y7195515D01*
G37*
G36*
X7071410Y7790484D02*
G01*
X7043115Y7762189D01*
X7056170Y7745069D01*
X7088530Y7777429D01*
G37*
G36*
X2583484Y6442303D02*
G01*
X2580640Y6420967D01*
X2626360Y6420967D01*
X2623515Y6442303D01*
G37*
G36*
X2999689Y6418884D02*
G01*
X2982569Y6405829D01*
X3014929Y6373469D01*
X3027984Y6390589D01*
G37*
G36*
X3385870Y6809130D02*
G01*
X3372815Y6792010D01*
X3401110Y6763715D01*
X3418230Y6776770D01*
G37*
G36*
X2852470Y6758330D02*
G01*
X2839415Y6741210D01*
X2867710Y6712915D01*
X2884830Y6725970D01*
G37*
G36*
X5117998Y8033715D02*
G01*
X5096510Y8033105D01*
X5103368Y7987893D01*
X5124043Y7993684D01*
G37*
G36*
X6548170Y8155330D02*
G01*
X6535115Y8138210D01*
X6563410Y8109915D01*
X6580530Y8122970D01*
G37*
G36*
X4574489Y7218984D02*
G01*
X4557369Y7205929D01*
X4589729Y7173569D01*
X4602784Y7190689D01*
G37*
G36*
X4539132Y7198359D02*
G01*
X4517796Y7195515D01*
X4517796Y7155484D01*
X4539132Y7152640D01*
G37*
G36*
X5298440Y8590432D02*
G01*
X5296306Y8572500D01*
X5346293Y8572500D01*
X5344160Y8590432D01*
G37*
G36*
X5550916Y8378240D02*
G01*
X5515559Y8342884D01*
X5532170Y8329269D01*
X5564530Y8361629D01*
G37*
G36*
X7041184Y6772503D02*
G01*
X7038340Y6751167D01*
X7084059Y6751167D01*
X7081215Y6772503D01*
G37*
G36*
X7780070Y7685430D02*
G01*
X7767015Y7668310D01*
X7795310Y7640015D01*
X7812430Y7653070D01*
G37*
G36*
X6977075Y7463434D02*
G01*
X6964019Y7446314D01*
X6992315Y7418019D01*
X7009434Y7431074D01*
G37*
G36*
X3576167Y8065008D02*
G01*
X3576167Y8019288D01*
X3597503Y8022132D01*
X3597503Y8062163D01*
G37*
G36*
X4706670Y8142630D02*
G01*
X4693615Y8125510D01*
X4721910Y8097215D01*
X4739030Y8110270D01*
G37*
G36*
X5367070Y7215530D02*
G01*
X5357571Y7194854D01*
X5378754Y7173671D01*
X5399430Y7183170D01*
G37*
G36*
X4853940Y7345832D02*
G01*
X4861814Y7324496D01*
X4891786Y7324496D01*
X4899660Y7345832D01*
G37*
G36*
X4861814Y7013803D02*
G01*
X4853940Y6992467D01*
X4899660Y6992467D01*
X4891786Y7013803D01*
G37*
G36*
X4907229Y6970623D02*
G01*
X4871364Y6942328D01*
X4890668Y6930390D01*
X4914392Y6949084D01*
G37*
G36*
X4896967Y6995159D02*
G01*
X4896967Y6949440D01*
X4918303Y6957314D01*
X4918303Y6987286D01*
G37*
G36*
X5277967Y7338059D02*
G01*
X5277967Y7292340D01*
X5299303Y7295184D01*
X5299303Y7335215D01*
G37*
G36*
X4329684Y7298740D02*
G01*
X4316069Y7282129D01*
X4348429Y7249769D01*
X4365040Y7263384D01*
G37*
G36*
X4676140Y7485532D02*
G01*
X4678984Y7464196D01*
X4719015Y7464196D01*
X4721860Y7485532D01*
G37*
G36*
X5527141Y6358229D02*
G01*
X5527192Y6312509D01*
X5548528Y6315405D01*
X5548477Y6355384D01*
G37*
G36*
X5488178Y6375247D02*
G01*
X5466994Y6354013D01*
X5476595Y6333388D01*
X5508853Y6365748D01*
G37*
G36*
X6156756Y6360109D02*
G01*
X6135420Y6357162D01*
X6135573Y6317183D01*
X6156909Y6314389D01*
G37*
G36*
X6192215Y6380784D02*
G01*
X6175095Y6367729D01*
X6207404Y6335369D01*
X6220460Y6352489D01*
G37*
G36*
X6365240Y6825132D02*
G01*
X6368084Y6803796D01*
X6408115Y6803796D01*
X6410960Y6825132D01*
G37*
G36*
X5798667Y7249159D02*
G01*
X5798667Y7203440D01*
X5820003Y7206284D01*
X5820003Y7246315D01*
G37*
G36*
X5763310Y7269784D02*
G01*
X5735015Y7241489D01*
X5748070Y7224369D01*
X5780430Y7256729D01*
G37*
G36*
X3726332Y7744459D02*
G01*
X3704996Y7741615D01*
X3704996Y7701584D01*
X3726332Y7698740D01*
G37*
G36*
X3776929Y7723530D02*
G01*
X3744569Y7691170D01*
X3761689Y7678115D01*
X3789984Y7706410D01*
G37*
G36*
X2174240Y7447432D02*
G01*
X2182114Y7426096D01*
X2212086Y7426096D01*
X2219960Y7447432D01*
G37*
G36*
X7335570Y6288430D02*
G01*
X7322515Y6271310D01*
X7350810Y6243015D01*
X7367930Y6256070D01*
G37*
G36*
X2352040Y8692032D02*
G01*
X2354884Y8670696D01*
X2394915Y8670696D01*
X2397760Y8692032D01*
G37*
G36*
X5836970Y7914030D02*
G01*
X5820359Y7900416D01*
X5855716Y7865059D01*
X5869330Y7881670D01*
G37*
G36*
X5887567Y7934959D02*
G01*
X5887567Y7889240D01*
X5908903Y7892084D01*
X5908903Y7932115D01*
G37*
G36*
X6334760Y7917484D02*
G01*
X6306515Y7889240D01*
X6319570Y7872069D01*
X6351930Y7904429D01*
G37*
G36*
X2770479Y6672275D02*
G01*
X2706979Y6666280D01*
X2779268Y6580022D01*
X2796286Y6641490D01*
G37*
G36*
X2630119Y6589420D02*
G01*
X2624124Y6525920D01*
X2654909Y6500114D01*
X2716377Y6517131D01*
G37*
G36*
X3367379Y6786575D02*
G01*
X3303879Y6780580D01*
X3376168Y6694322D01*
X3393186Y6755790D01*
G37*
G36*
X3227019Y6703720D02*
G01*
X3221024Y6640220D01*
X3251809Y6614414D01*
X3313277Y6631431D01*
G37*
G36*
X3963568Y6012535D02*
G01*
X3911092Y5971286D01*
X3911092Y5941314D01*
X3963568Y5900064D01*
G37*
G36*
X4062831Y6012535D02*
G01*
X4062831Y5900064D01*
X4115308Y5936284D01*
X4115308Y5976315D01*
G37*
G36*
X7357922Y8099704D02*
G01*
X7346746Y8027924D01*
X7375042Y7999628D01*
X7446822Y8010804D01*
G37*
G36*
X7574635Y8189315D02*
G01*
X7546390Y8161020D01*
X7557566Y8089239D01*
X7646466Y8178139D01*
G37*
D10*
X3416300Y6807200D02*
G01*
X2984500Y6375400D01*
X2882900Y6756400D02*
G01*
X2603500Y6477000D01*
X2603500Y6400800D01*
D11*
X4013200Y5956300D02*
G01*
X2908300Y5956300D01*
X2197100Y6667500D01*
X2197100Y7467600D01*
D10*
X5778500Y7226300D02*
G01*
X6772297Y7226300D01*
X7007501Y7461504D01*
D12*
X5562600Y8331200D02*
G01*
X5321300Y8572500D01*
X5321300Y8610600D01*
D10*
X3746500Y7721600D02*
G01*
X2952241Y7721600D01*
X2374900Y8298942D01*
X2374900Y8712200D01*
X7810500Y7683500D02*
G01*
X7061200Y6934200D01*
X7061200Y6731000D01*
D11*
X4876800Y7366000D02*
G01*
X4876800Y6972300D01*
D10*
X6177025Y6337300D02*
G01*
X5506974Y6335268D01*
X6388100Y6845300D02*
G01*
X6388100Y6548399D01*
X6177000Y6337300D01*
X3556000Y8042150D02*
G01*
X4638550Y8042150D01*
X4737100Y8140700D01*
X5778500Y7226300D02*
G01*
X5689600Y7315200D01*
X5257800Y7315200D01*
D11*
X4876800Y6972300D02*
G01*
X4876800Y6965442D01*
X5506976Y6335265D01*
D10*
X4699000Y7505700D02*
G01*
X4699000Y7315200D01*
X4559300Y7175500D01*
X4559300Y7175500D02*
G01*
X4292600Y7175500D01*
X3746500Y7721600D01*
D12*
X5867400Y7912100D02*
G01*
X5753100Y7797800D01*
X4724400Y7797800D01*
X4470400Y7543800D01*
X4470400Y7404100D01*
X4318000Y7251700D01*
D11*
X5397500Y7213600D02*
G01*
X5156200Y6972300D01*
X4876800Y6972300D01*
D10*
X5867400Y7912100D02*
G01*
X6311900Y7912100D01*
X6350000Y7874000D01*
X6578600Y8153400D02*
G01*
X6438900Y8013700D01*
X5086200Y8013700D01*
X5080000Y8007504D01*
X4292600Y7175500D02*
G01*
X3200400Y7175500D01*
X5689600Y7315200D02*
G01*
X5397500Y7315200D01*
X5257800Y7454900D01*
X7366000Y6286500D02*
G01*
X7029096Y5949596D01*
X4131739Y5949596D01*
X4125038Y5956300D01*
X4013200Y5956300D01*
X6007724Y6336786D02*
G01*
X6007724Y6604000D01*
X5867400Y8013700D02*
G01*
X6819900Y8013700D01*
X7086600Y7747000D01*
X6845300Y6515100D02*
G01*
X7086600Y6515100D01*
X7175500Y6604000D01*
X7441565Y8094471D02*
G01*
X7187565Y7840471D01*
X7187565Y7459471D01*
X6831965Y7103871D01*
X6748272Y7103871D01*
X6718300Y7073900D01*
X7641081Y8094471D02*
G01*
X7493254Y8242300D01*
X6629400Y8242300D01*
X6057900Y8813800D01*
D13*
G01*
X4013200Y5956300D03*
G01*
X3302000Y6705600D03*
G01*
X2705100Y6591300D03*
D14*
G01*
X7641209Y8094471D03*
G01*
X7441565Y8094471D03*
D15*
G01*
X6274511Y5720587D03*
D16*
G01*
X6274511Y6140577D03*
G01*
X5409488Y6140577D03*
D15*
G01*
X5409488Y5720587D03*
D17*
G01*
X6350000Y7874000D03*
G01*
X5867400Y7912100D03*
G01*
X2374900Y8712200D03*
D18*
G01*
X7366000Y6286500D03*
G01*
X2197100Y7467600D03*
G01*
X3746500Y7721600D03*
G01*
X5778500Y7226300D03*
G01*
X6388100Y6845300D03*
G01*
X6177000Y6337300D03*
G01*
X5506999Y6335344D03*
G01*
X4699000Y7505700D03*
G01*
X4318000Y7251700D03*
G01*
X5257800Y7315200D03*
G01*
X4876800Y6972300D03*
G01*
X4876800Y7366000D03*
G01*
X5397500Y7213600D03*
G01*
X4737100Y8140700D03*
G01*
X3556000Y8042147D03*
G01*
X7007504Y7461504D03*
G01*
X7810500Y7683500D03*
G01*
X7061200Y6731000D03*
G01*
X5562600Y8331200D03*
G01*
X5321300Y8610600D03*
G01*
X4559300Y7175500D03*
G01*
X6578600Y8153400D03*
G01*
X5080000Y8007502D03*
G01*
X2882900Y6756400D03*
G01*
X3416300Y6807200D03*
G01*
X2984500Y6375400D03*
G01*
X2603500Y6400800D03*
G01*
X7086600Y7747000D03*
G01*
X3200400Y7175500D03*
G01*
X5257800Y7454900D03*
G01*
X6007734Y6604000D03*
G01*
X6845300Y6515100D03*
G01*
X7175500Y6604000D03*
G01*
X6718300Y7073900D03*
G01*
X6057900Y8813800D03*
M02*
