G04 Layer: BottomSilkscreenLayer*
G04 EasyEDA v6.5.22, 2023-01-18 22:00:42*
G04 8e8bbbff4294455ebee03c083efee197,a9f00e695b414744abbaf3eb758947ea,10*
G04 Gerber Generator version 0.2*
G04 Scale: 100 percent, Rotated: No, Reflected: No *
G04 Dimensions in millimeters *
G04 leading zeros omitted , absolute positions ,4 integer and 5 decimal *
%FSLAX45Y45*%
%MOMM*%

%ADD10C,0.1000*%
%ADD11C,0.1524*%

%LPD*%
D10*
X2552618Y6618264D02*
G01*
X2558072Y6623718D01*
X2566253Y6626445D01*
X2577162Y6626445D01*
X2585346Y6623718D01*
X2590800Y6618264D01*
X2590800Y6612808D01*
X2588072Y6607355D01*
X2585346Y6604627D01*
X2579890Y6601899D01*
X2563528Y6596446D01*
X2558072Y6593718D01*
X2555346Y6590990D01*
X2552618Y6585536D01*
X2552618Y6577355D01*
X2558072Y6571899D01*
X2566253Y6569171D01*
X2577162Y6569171D01*
X2585346Y6571899D01*
X2590800Y6577355D01*
X2493708Y6612808D02*
G01*
X2496436Y6618264D01*
X2501889Y6623718D01*
X2507345Y6626445D01*
X2518255Y6626445D01*
X2523708Y6623718D01*
X2529164Y6618264D01*
X2531889Y6612808D01*
X2534617Y6604627D01*
X2534617Y6590990D01*
X2531889Y6582808D01*
X2529164Y6577355D01*
X2523708Y6571899D01*
X2518255Y6569171D01*
X2507345Y6569171D01*
X2501889Y6571899D01*
X2496436Y6577355D01*
X2493708Y6582808D01*
X2475710Y6626445D02*
G01*
X2475710Y6569171D01*
X2475710Y6569171D02*
G01*
X2442982Y6569171D01*
X3162218Y6732564D02*
G01*
X3167672Y6738018D01*
X3175853Y6740745D01*
X3186762Y6740745D01*
X3194946Y6738018D01*
X3200400Y6732564D01*
X3200400Y6727108D01*
X3197672Y6721655D01*
X3194946Y6718927D01*
X3189490Y6716199D01*
X3173128Y6710746D01*
X3167672Y6708018D01*
X3164946Y6705290D01*
X3162218Y6699836D01*
X3162218Y6691655D01*
X3167672Y6686199D01*
X3175853Y6683471D01*
X3186762Y6683471D01*
X3194946Y6686199D01*
X3200400Y6691655D01*
X3144217Y6740745D02*
G01*
X3144217Y6683471D01*
X3144217Y6740745D02*
G01*
X3125127Y6740745D01*
X3116945Y6738018D01*
X3111489Y6732564D01*
X3108764Y6727108D01*
X3106036Y6718927D01*
X3106036Y6705290D01*
X3108764Y6697108D01*
X3111489Y6691655D01*
X3116945Y6686199D01*
X3125127Y6683471D01*
X3144217Y6683471D01*
X3066219Y6740745D02*
G01*
X3088035Y6683471D01*
X3066219Y6740745D02*
G01*
X3044400Y6683471D01*
X3079854Y6702564D02*
G01*
X3052582Y6702564D01*
X3851681Y5991445D02*
G01*
X3873500Y5934171D01*
X3851681Y5991445D02*
G01*
X3829862Y5934171D01*
X3865318Y5953264D02*
G01*
X3838046Y5953264D01*
X3795500Y5991445D02*
G01*
X3803683Y5988718D01*
X3809136Y5980536D01*
X3811864Y5966899D01*
X3811864Y5958718D01*
X3809136Y5945080D01*
X3803683Y5936899D01*
X3795500Y5934171D01*
X3790045Y5934171D01*
X3781864Y5936899D01*
X3776408Y5945080D01*
X3773683Y5958718D01*
X3773683Y5966899D01*
X3776408Y5980536D01*
X3781864Y5988718D01*
X3790045Y5991445D01*
X3795500Y5991445D01*
D11*
X4154632Y6185938D02*
G01*
X4154632Y6076835D01*
X4191000Y6185938D02*
G01*
X4118264Y6185938D01*
X4083974Y6185938D02*
G01*
X4083974Y6076835D01*
X4083974Y6185938D02*
G01*
X4037215Y6185938D01*
X4021627Y6180744D01*
X4016433Y6175547D01*
X4011236Y6165156D01*
X4011236Y6149571D01*
X4016433Y6139179D01*
X4021627Y6133985D01*
X4037215Y6128788D01*
X4083974Y6128788D01*
X3971752Y6159962D02*
G01*
X3971752Y6165156D01*
X3966555Y6175547D01*
X3961361Y6180744D01*
X3950970Y6185938D01*
X3930187Y6185938D01*
X3919796Y6180744D01*
X3914602Y6175547D01*
X3909405Y6165156D01*
X3909405Y6154765D01*
X3914602Y6144374D01*
X3924993Y6128788D01*
X3976946Y6076835D01*
X3904211Y6076835D01*
X3291077Y6947915D02*
G01*
X3291077Y6838950D01*
X3327400Y6947915D02*
G01*
X3254756Y6947915D01*
X3220465Y6947915D02*
G01*
X3220465Y6838950D01*
X3220465Y6947915D02*
G01*
X3173729Y6947915D01*
X3157981Y6942836D01*
X3152902Y6937502D01*
X3147568Y6927087D01*
X3147568Y6911594D01*
X3152902Y6901179D01*
X3157981Y6896100D01*
X3173729Y6890765D01*
X3220465Y6890765D01*
X3102863Y6947915D02*
G01*
X3045713Y6947915D01*
X3076956Y6906260D01*
X3061461Y6906260D01*
X3051047Y6901179D01*
X3045713Y6896100D01*
X3040634Y6880352D01*
X3040634Y6869937D01*
X3045713Y6854444D01*
X3056127Y6844029D01*
X3071875Y6838950D01*
X3087370Y6838950D01*
X3102863Y6844029D01*
X3108197Y6849110D01*
X3113277Y6859523D01*
X2694177Y6833615D02*
G01*
X2694177Y6724650D01*
X2730500Y6833615D02*
G01*
X2657856Y6833615D01*
X2623565Y6833615D02*
G01*
X2623565Y6724650D01*
X2623565Y6833615D02*
G01*
X2576829Y6833615D01*
X2561081Y6828536D01*
X2556002Y6823202D01*
X2550668Y6812787D01*
X2550668Y6797294D01*
X2556002Y6786879D01*
X2561081Y6781800D01*
X2576829Y6776465D01*
X2623565Y6776465D01*
X2464561Y6833615D02*
G01*
X2516377Y6760971D01*
X2438400Y6760971D01*
X2464561Y6833615D02*
G01*
X2464561Y6724650D01*
M02*
